<?xml version="1.0" encoding="UTF-8" standalone="no"?>
<!DOCTYPE svg PUBLIC "-//W3C//DTD SVG 1.1//EN"
"http://www.w3.org/Graphics/SVG/1.1/DTD/svg11.dtd">


<!-- Page 1 -->
<svg x="0" y="0" width="1210" height="935" viewBox="0 0 1210 935" version="1.1" xmlns="http://www.w3.org/2000/svg" xmlns:xlink="http://www.w3.org/1999/xlink"
style="display: block;margin-left: auto;margin-right: auto;">
<defs>
<clipPath id="c_1"><path d="M0,0H1210V935H0Z"/></clipPath>
<style type="text/css"><![CDATA[
text { white-space: pre; }
path, image { pointer-events: none; }

.s1{
font-size: 10.69px;
font-family: Helvetica, Arial, sans-serif;
fill: TRANSPARENT;
}
.s2{
font-size: 18.03px;
font-style: italic;
font-family: Helvetica, Arial, sans-serif;
fill: TRANSPARENT;
}
.s3{
font-size: 10.51px;
font-family: Helvetica, Arial, sans-serif;
fill: TRANSPARENT;
}
.s4{
font-size: 10.69px;
font-weight: bold;
font-family: Helvetica, Arial, sans-serif;
fill: TRANSPARENT;
}
.s5{
font-size: 9.16px;
font-family: Helvetica, Arial, sans-serif;
fill: TRANSPARENT;
}
.s6{
font-size: 9.16px;
font-weight: bold;
font-family: Helvetica, Arial, sans-serif;
fill: TRANSPARENT;
}

.g0{
fill: #FFFFFF;
}
.g1{
fill: #666666;
}
.g2{
fill: none;
stroke: #000000;
stroke-width: 1.375;
stroke-linecap: butt;
stroke-linejoin: miter;
stroke-opacity: 0;
}
.g3{
fill: #B2B2B2;
}
.g4{
fill: none;
stroke: #B2B2B2;
stroke-width: 1.375;
stroke-linecap: butt;
stroke-linejoin: miter;
}
.g5{
fill: #75B2FF;
}
.g6{
fill: none;
stroke: #000000;
stroke-width: 0.687;
stroke-linecap: butt;
stroke-linejoin: miter;
stroke-opacity: 0;
}
.g7{
}
.g8{
fill: none;
stroke: #666666;
stroke-width: 0.687;
stroke-linecap: butt;
stroke-linejoin: miter;
}
.g9{
fill: #A5CEFF;
}

]]></style>

</defs>
<g clip-path="url(#c_1)">
<path d="M0,0
L0,935
L1210,935
L1210,0 Z " 
fill="#FFFFFF" stroke="none"/>
<path d="M0,0H1210V935H0Z" class="g0"/>
<path d="M448.5,250.2c-2.4,0,-3.6,-1.4,-3.7,-3.8c-.2,-3.2,3,-4.6,5.7,-3.3c.5,.2,.9,.7,1.1,1.3l-.9,.2c-.4,-.7,-1.1,-1.2,-2.3,-1.2c-1.8,0,-2.6,1.2,-2.6,3c0,1.8,.9,2.9,2.7,3c1,0,1.8,-.3,2.3,-.8v-1.4h-2.1v-.8h3.1V249c-.8,.7,-1.8,1.2,-3.3,1.2Z" class="g1"/>
<path d="M456.8,249c-.5,.6,-1,1.2,-2.1,1.2c-1,0,-1.7,-.6,-1.7,-1.7c0,-1.9,1.9,-1.9,3.7,-1.9c.1,-1,-.2,-1.6,-1.2,-1.6c-.7,.1,-1.2,.3,-1.2,1l-1,-.1c.1,-1.1,1,-1.6,2.2,-1.6c1.4,0,2.2,.6,2.2,1.9v2.5c0,.6,.2,.9,.8,.8v.6c-.9,.2,-1.8,-.1,-1.7,-1.1Zm-2.8,-.5c0,.6,.4,1,.9,1c1.3,-.1,1.9,-.9,1.8,-2.2c-1.2,.1,-2.7,-.1,-2.7,1.2Z" class="g1"/>
<path d="M461,250.2c-2.6,.1,-1.6,-3.4,-1.8,-5.8h.9V248c0,.9,.3,1.5,1.2,1.5c2.1,-.1,1.3,-3,1.5,-5.1h.9v5.7h-.9c0,-.3,.1,-.8,0,-1c-.3,.7,-.8,1.1,-1.8,1.1Z" class="g1"/>
<path d="M467.8,245.3c-2.3,-.5,-1.5,2.7,-1.7,4.8h-.9v-5.7h.9c0,.4,-.1,.9,0,1.2c.2,-.8,.7,-1.4,1.7,-1.2v.9Z" class="g1"/>
<path d="M470.5,244.3c.9,0,1.4,.4,1.8,1v-3h.9v7.8h-.8c-.1,-.3,0,-.7,-.1,-.9c-.3,.7,-.9,1,-1.8,1c-1.6,0,-2,-1.1,-2.1,-2.9c0,-2,.7,-3,2.1,-3Zm.3,.7c-1.2,0,-1.4,1.1,-1.4,2.3c0,1.2,.2,2.2,1.3,2.2c1.3,0,1.6,-1,1.6,-2.3c0,-1.2,-.3,-2.2,-1.5,-2.2Z" class="g1"/>
<path d="M480.6,243.6v6.5h-1v-6.5h-2.5v-.9h6v.9h-2.5Z" class="g1"/>
<path d="M486.4,245.3c-2.4,-.5,-1.6,2.7,-1.7,4.8h-1v-5.7h.9c0,.4,-.1,.9,0,1.2c.2,-.8,.7,-1.4,1.8,-1.2v.9Z" class="g1"/>
<path d="M487.2,243.2v-.9h1v.9h-1Zm0,6.9v-5.7h1v5.7h-1Z" class="g1"/>
<path d="M494.1,244.4c-.3,3.8,1.2,8.8,-3.3,7.8c-.6,-.2,-1.1,-.6,-1.3,-1.3l1,-.1c.4,1.4,3,.9,2.6,-.9v-.8c-.3,.6,-.8,1,-1.8,1c-1.6,0,-2,-1.2,-2,-2.8c0,-1.7,.5,-2.9,2.1,-2.9c.9,-.1,1.4,.4,1.8,1c0,-.3,0,-.7,0,-1h.9Zm-2.5,5c1.1,0,1.5,-.9,1.5,-2.1c0,-1.3,-.4,-2.3,-1.5,-2.3c-1.1,0,-1.3,1.1,-1.3,2.3c0,1.2,.2,2.1,1.3,2.1Z" class="g1"/>
<path d="M500,244.4c-.3,3.8,1.3,8.8,-3.2,7.8c-.7,-.2,-1.1,-.6,-1.3,-1.3l.9,-.1c.5,1.4,3,.9,2.7,-.9v-.8c-.4,.6,-.9,1,-1.8,1c-1.6,0,-2.1,-1.2,-2.1,-2.8c0,-1.7,.5,-2.9,2.1,-2.9c.9,-.1,1.5,.4,1.8,1c0,-.3,0,-.7,.1,-1h.8Zm-2.4,5c1,0,1.5,-.9,1.5,-2.1c0,-1.3,-.5,-2.3,-1.5,-2.3c-1.2,0,-1.4,1.1,-1.4,2.3c0,1.2,.2,2.1,1.4,2.1Z" class="g1"/>
<path d="M503.7,244.3c1.9,0,2.6,1.3,2.5,3.2h-4c0,1.2,.4,2,1.6,2c.7,0,1.2,-.4,1.4,-.9l.8,.3c-.3,.8,-1.1,1.3,-2.2,1.3c-1.8,0,-2.7,-1.1,-2.6,-3c0,-1.8,.7,-2.9,2.5,-2.9Zm1.5,2.4c.2,-1.7,-2.2,-2.3,-2.8,-.8c-.1,.2,-.2,.5,-.2,.8h3Z" class="g1"/>
<path d="M510.1,245.3c-2.4,-.5,-1.6,2.7,-1.7,4.8h-1v-5.7h.9c0,.4,-.1,.9,0,1.2c.2,-.8,.7,-1.4,1.8,-1.2v.9Z" class="g1"/>
<path d="M412.1,260.2c0,1.9,-1.2,2.8,-3.1,2.8c-1.8,0,-3,-.9,-3,-2.7v-4.7h1c.2,2.6,-1,6.6,2,6.6c3,0,1.9,-3.9,2.1,-6.6h1v4.6Z" class="g1"/>
<path d="M416.9,258.7c-.1,-1,-2.6,-1.1,-2.6,0c.5,1.6,3.4,.3,3.5,2.7c.2,2.3,-4.4,2.2,-4.6,.2l.8,-.2c.1,1.1,2.9,1.4,2.9,0c-.3,-1.6,-3.3,-.4,-3.5,-2.6c-.1,-1.7,2.5,-1.9,3.6,-1.3c.4,.2,.7,.6,.8,1.1Z" class="g1"/>
<path d="M421.2,257.2c1.9,0,2.6,1.2,2.5,3.1h-4c0,1.2,.4,2,1.6,2c.7,.1,1.2,-.3,1.4,-.8l.8,.2c-.3,.8,-1.1,1.3,-2.2,1.3c-1.8,0,-2.7,-1.1,-2.6,-2.9c0,-1.8,.7,-2.9,2.5,-2.9Zm1.5,2.4c.2,-1.8,-2.2,-2.3,-2.8,-.9c-.1,.2,-.2,.5,-.2,.9h3Z" class="g1"/>
<path d="M427.6,258.1c-2.4,-.5,-1.6,2.7,-1.7,4.8h-1v-5.6h.9c0,.3,-.1,.8,0,1.1c.2,-.8,.7,-1.4,1.8,-1.2v.9Z" class="g1"/>
<path d="M433.6,257.2c1.9,0,2.6,1.2,2.5,3.1h-4c0,1.2,.4,2,1.6,2c.8,.1,1.3,-.3,1.5,-.8l.8,.2c-.3,.8,-1.1,1.3,-2.3,1.3c-1.7,0,-2.6,-1.1,-2.6,-2.9c.1,-1.8,.8,-2.9,2.5,-2.9Zm1.6,2.4c.2,-1.8,-2.3,-2.3,-2.9,-.9c-.1,.2,-.2,.5,-.2,.9h3.1Z" class="g1"/>
<path d="M440.1,257.2c2.6,-.2,1.6,3.4,1.8,5.7h-1v-3.6c0,-.9,-.2,-1.4,-1.1,-1.4c-2.2,.1,-1.3,3,-1.5,5h-.9l-.1,-5.6h.9c.1,.3,0,.7,.1,.9c.3,-.6,.8,-1,1.8,-1Z" class="g1"/>
<path d="M444.3,261.5c0,.7,.5,.9,1.1,.7v.7c-.9,.3,-2,.1,-2,-1.2V258h-.7v-.7h.7l.3,-1.3h.6v1.3h1v.7h-1v3.5Z" class="g1"/>
<path d="M448.5,257.2c1.9,0,2.6,1.2,2.5,3.1h-4c0,1.2,.4,2,1.6,2c.7,.1,1.2,-.3,1.4,-.8l.8,.2c-.3,.8,-1.1,1.3,-2.2,1.3c-1.8,0,-2.7,-1.1,-2.6,-2.9c0,-1.8,.7,-2.9,2.5,-2.9Zm1.5,2.4c.2,-1.8,-2.2,-2.3,-2.8,-.9c-.1,.2,-.2,.5,-.2,.9h3Z" class="g1"/>
<path d="M454.9,258.1c-2.4,-.5,-1.6,2.7,-1.7,4.8h-1v-5.6h.9c0,.3,-.1,.8,0,1.1c.2,-.8,.7,-1.4,1.8,-1.2v.9Z" class="g1"/>
<path d="M459,258.7c-.1,-1,-2.5,-1.1,-2.6,0c.5,1.6,3.4,.3,3.6,2.7c.1,2.3,-4.5,2.2,-4.7,.2l.8,-.2c.1,1.1,2.9,1.4,2.9,0c-.3,-1.6,-3.3,-.4,-3.5,-2.6c-.1,-1.7,2.5,-1.9,3.7,-1.3c.3,.2,.6,.6,.7,1.1Z" class="g1"/>
<path d="M466.7,257.2c1.7,0,2.1,1.2,2.1,2.9c0,1.7,-.5,2.9,-2.1,2.9c-.9,0,-1.4,-.3,-1.7,-1v3.2h-1v-7.9h.9l.1,.9c.3,-.6,.8,-1,1.7,-1Zm-.2,5.1c1.2,0,1.3,-1,1.3,-2.2c0,-1.2,-.1,-2.2,-1.3,-2.2c-1.2,0,-1.5,1,-1.5,2.3c0,1.2,.3,2.1,1.5,2.1Z" class="g1"/>
<path d="M473.5,261.9c-.5,.6,-1,1.2,-2.1,1.1c-1,0,-1.7,-.6,-1.7,-1.6c0,-1.9,1.9,-1.9,3.7,-1.9c.1,-1.1,-.2,-1.6,-1.2,-1.6c-.7,0,-1.2,.2,-1.2,.9l-1,-.1c.1,-1.1,1,-1.5,2.2,-1.5c1.4,0,2.2,.6,2.2,1.9v2.4c-.1,.6,.2,1,.8,.8v.6c-.9,.3,-1.8,-.1,-1.7,-1Zm-2.8,-.5c0,.5,.3,.9,.9,.9c1.3,-.1,1.9,-.8,1.8,-2.2c-1.3,.1,-2.7,-.1,-2.7,1.3Z" class="g1"/>
<path d="M479.2,258.7c-.1,-1,-2.5,-1.1,-2.6,0c.5,1.6,3.4,.3,3.6,2.7c.1,2.3,-4.5,2.2,-4.7,.2l.8,-.2c.2,1.1,2.9,1.4,2.9,0c-.3,-1.6,-3.3,-.4,-3.5,-2.6c-.1,-1.7,2.5,-1.9,3.7,-1.3c.3,.2,.6,.6,.7,1.1Z" class="g1"/>
<path d="M484.6,258.7c-.1,-1,-2.6,-1.1,-2.6,0c.4,1.6,3.4,.3,3.5,2.7c.1,2.3,-4.4,2.2,-4.7,.2l.9,-.2c.1,1.1,2.9,1.4,2.9,0c-.3,-1.6,-3.4,-.4,-3.5,-2.6c-.1,-1.7,2.4,-1.9,3.6,-1.3c.4,.2,.6,.6,.7,1.1Z" class="g1"/>
<path d="M492,262.9h-1.1l-1.1,-4.8l-1.3,4.8h-1l-1.6,-5.6h.9l1.2,4.9l1.3,-4.9h1l1.2,4.9l1.2,-4.9h1Z" class="g1"/>
<path d="M496.6,257.2c1.8,-.1,2.5,1.1,2.5,2.9c0,1.9,-.8,2.9,-2.6,2.9c-1.7,0,-2.4,-1.1,-2.5,-2.9c0,-2,.9,-2.9,2.6,-2.9Zm-.1,5.1c1.3,.1,1.6,-.9,1.6,-2.2c0,-1.3,-.2,-2.2,-1.5,-2.2c-1.3,0,-1.6,.9,-1.6,2.2c0,1.3,.3,2.2,1.5,2.2Z" class="g1"/>
<path d="M502.9,258.1c-2.3,-.5,-1.6,2.7,-1.7,4.8h-.9l-.1,-5.6h.9c.1,.3,0,.8,.1,1.1c.2,-.8,.7,-1.4,1.7,-1.2v.9Z" class="g1"/>
<path d="M505.6,257.2c.9,0,1.4,.4,1.8,.9l-.1,-2.9h1v7.7h-.9c0,-.3,0,-.7,-.1,-.9c-.3,.7,-.8,1,-1.7,1c-1.6,0,-2.1,-1.1,-2.1,-2.9c0,-1.9,.7,-2.9,2.1,-2.9Zm.3,.7c-1.2,0,-1.4,1,-1.4,2.2c0,1.2,.2,2.2,1.3,2.2c1.3,0,1.5,-.9,1.5,-2.3c0,-1.2,-.2,-2.2,-1.4,-2.1Z" class="g1"/>
<path d="M512.7,256.1v-.9h.9v.9h-.9Zm0,6.8v-5.6h.9v5.6h-.9Z" class="g1"/>
<path d="M517.3,256c-.9,-.3,-1.2,.3,-1.1,1.3h1.1v.7h-1.1v4.9h-.9V258h-.8v-.7h.8c-.2,-1.6,.5,-2.5,2,-2v.7Z" class="g1"/>
<path d="M526.3,262.9h-1l-1.2,-4.8l-1.2,4.8h-1.1l-1.6,-5.6h1l1.1,4.9l1.3,-4.9h1l1.2,4.9l1.3,-4.9h.9Z" class="g1"/>
<path d="M531.3,258.1c-2.3,-.5,-1.6,2.7,-1.7,4.8h-.9l-.1,-5.6h.9c.1,.3,0,.8,.1,1.1c.2,-.8,.7,-1.4,1.7,-1.2v.9Z" class="g1"/>
<path d="M534.4,257.2c1.9,-.1,2.6,1.1,2.6,2.9c0,1.9,-.8,2.9,-2.6,2.9c-1.8,0,-2.5,-1.1,-2.5,-2.9c0,-2,.8,-2.9,2.5,-2.9Zm0,5.1c1.3,.1,1.6,-.9,1.6,-2.2c0,-1.3,-.3,-2.2,-1.5,-2.2c-1.3,0,-1.6,.9,-1.6,2.2c0,1.3,.3,2.2,1.5,2.2Z" class="g1"/>
<path d="M540.9,257.2c2.6,-.2,1.5,3.4,1.8,5.7h-1v-3.6c0,-.9,-.2,-1.4,-1.2,-1.4c-2.1,.1,-1.3,3,-1.4,5h-1v-5.6h.9c0,.3,0,.7,.1,.9c.3,-.6,.8,-1,1.8,-1Z" class="g1"/>
<path d="M548.6,257.3c-.3,3.7,1.2,8.7,-3.3,7.7c-.7,-.1,-1.1,-.6,-1.3,-1.2l1,-.2c.4,1.4,2.9,1,2.6,-.8v-.9c-.3,.6,-.8,1.1,-1.8,1.1c-1.6,0,-2,-1.3,-2,-2.9c0,-1.7,.5,-2.9,2.1,-2.9c.9,0,1.4,.5,1.7,1c.1,-.3,0,-.6,.1,-.9h.9Zm-2.5,5c1.1,0,1.5,-1,1.5,-2.2c0,-1.2,-.4,-2.2,-1.5,-2.2c-1.1,0,-1.3,1,-1.3,2.2c0,1.2,.1,2.2,1.3,2.2Z" class="g1"/>
<path d="M529.4,388.5h-1l-3,-7.3h1l2.5,6.4l2.4,-6.4h1.1Z" class="g1"/>
<path d="M532.9,381.7v-.9h1v.9h-1Zm0,6.8v-5.6h1v5.6h-1Z" class="g1"/>
<path d="M537.5,382.8c1.9,0,2.6,1.2,2.5,3.1h-4c0,1.2,.4,2,1.6,2c.8,.1,1.3,-.3,1.5,-.8l.8,.2c-.3,.8,-1.1,1.4,-2.3,1.4c-1.7,0,-2.6,-1.1,-2.6,-3c.1,-1.8,.8,-2.9,2.5,-2.9Zm1.6,2.4c.2,-1.8,-2.3,-2.3,-2.9,-.9c-.1,.3,-.2,.6,-.2,.9h3.1Z" class="g1"/>
<path d="M546.6,388.5h-1l-1.2,-4.8l-1.2,4.8h-1.1l-1.6,-5.6h.9l1.2,4.9l1.3,-4.9h1l1.2,4.9l1.2,-4.9h1Z" class="g1"/>
<path d="M558.3,388.5l.1,-6.4c-.7,2.2,-1.6,4.3,-2.4,6.4h-.7l-2.4,-6.4v6.4h-.8v-7.3h1.3l2.3,6.2c.6,-2.2,1.5,-4.1,2.2,-6.2h1.3v7.3h-.9Z" class="g1"/>
<path d="M563,382.8c1.9,0,2.6,1.2,2.5,3.1h-4c0,1.2,.4,2,1.6,2c.8,.1,1.3,-.3,1.5,-.8l.8,.2c-.3,.8,-1.1,1.4,-2.3,1.4c-1.7,0,-2.6,-1.1,-2.6,-3c0,-1.8,.8,-2.9,2.5,-2.9Zm1.6,2.4c.2,-1.8,-2.3,-2.3,-2.9,-.9c-.1,.3,-.2,.6,-.2,.9h3.1Z" class="g1"/>
<path d="M572.2,383.5c-1.9,.1,-1.1,3.1,-1.3,5H570v-3.6c0,-.8,-.1,-1.4,-1,-1.4c-2,.1,-1.1,3.1,-1.3,5h-.9l-.1,-5.6h.9c0,.3,0,.7,.1,.9c.3,-1.3,2.9,-1.4,3.2,0c.3,-.6,.8,-1,1.7,-1c2.5,-.1,1.4,3.5,1.6,5.7h-.9v-3.6c0,-.8,-.2,-1.4,-1.1,-1.4Z" class="g1"/>
<path d="M578.3,382.8c1.6,0,2.1,1.1,2.1,2.9c0,1.9,-.7,3,-2.1,3c-.9,-.1,-1.4,-.4,-1.7,-1.1l-.1,.9h-.9v-7.7h1v3c.3,-.7,.8,-1,1.7,-1Zm-.2,5.1c1.2,0,1.3,-1,1.3,-2.2c0,-1.2,-.1,-2.2,-1.3,-2.2c-1.3,0,-1.5,1,-1.5,2.3c0,1.2,.3,2.1,1.5,2.1Z" class="g1"/>
<path d="M583.8,382.8c1.9,0,2.6,1.2,2.5,3.1h-4c0,1.2,.4,2,1.6,2c.7,.1,1.2,-.3,1.4,-.8l.8,.2c-.3,.8,-1.1,1.4,-2.2,1.4c-1.8,0,-2.7,-1.1,-2.6,-3c0,-1.8,.7,-2.9,2.5,-2.9Zm1.5,2.4c.2,-1.8,-2.2,-2.3,-2.8,-.9c-.1,.3,-.2,.6,-.2,.9h3Z" class="g1"/>
<path d="M590.2,383.7c-2.4,-.5,-1.6,2.7,-1.7,4.8h-1v-5.6h.9c0,.3,-.1,.9,0,1.1c.2,-.8,.7,-1.4,1.8,-1.2v.9Z" class="g1"/>
<path d="M594.3,384.3c-.1,-1,-2.5,-1.1,-2.6,0c.5,1.6,3.4,.3,3.6,2.7c.1,2.3,-4.5,2.2,-4.7,.2l.8,-.2c.2,1.1,2.9,1.4,2.9,0c-.3,-1.6,-3.3,-.4,-3.5,-2.6c-.1,-1.7,2.5,-1.9,3.7,-1.3c.3,.2,.6,.6,.7,1.1Z" class="g1"/>
<path d="M602.8,387.5c-.5,.6,-.9,1.2,-2,1.2c-1.1,-.1,-1.7,-.7,-1.7,-1.7c-.1,-1.9,1.8,-1.9,3.7,-1.9c.1,-1.1,-.3,-1.6,-1.3,-1.6c-.7,0,-1.2,.2,-1.2,.9l-1,-.1c.2,-1.1,1,-1.5,2.3,-1.5c1.3,0,2.1,.6,2.1,1.9v2.4c0,.6,.2,1,.8,.8v.6c-.9,.3,-1.8,-.1,-1.7,-1ZM600,387c0,.6,.4,.9,1,.9c1.2,0,1.9,-.8,1.8,-2.2c-1.3,.1,-2.8,-.1,-2.8,1.3Z" class="g1"/>
<path d="M608,382.8c2.7,-.1,1.6,3.4,1.8,5.7h-.9v-3.6c0,-.9,-.3,-1.4,-1.2,-1.4c-2.1,.1,-1.3,3,-1.5,5h-.9v-5.6h.9c0,.3,-.1,.7,0,.9c.3,-.6,.9,-1,1.8,-1Z" class="g1"/>
<path d="M613,382.8c.9,0,1.4,.4,1.8,1v-3h.9v7.7h-.8c-.1,-.3,0,-.6,-.1,-.9c-.3,.7,-.9,1.1,-1.8,1.1c-1.6,0,-2,-1.2,-2.1,-3c0,-1.9,.7,-2.9,2.1,-2.9Zm.3,.7c-1.2,0,-1.4,1,-1.4,2.2c0,1.2,.2,2.2,1.3,2.2c1.3,0,1.6,-.9,1.6,-2.2c0,-1.3,-.3,-2.2,-1.5,-2.2Z" class="g1"/>
<path d="M625.6,383.5c-2,.1,-1.1,3.1,-1.3,5h-.9v-3.6c0,-.8,-.2,-1.4,-1.1,-1.4c-1.9,.1,-1.1,3.1,-1.3,5h-.9v-5.6h.9c0,.3,-.1,.7,0,.9c.3,-1.3,3,-1.4,3.2,0c.3,-.6,.8,-1,1.7,-1c2.6,-.1,1.4,3.5,1.7,5.7h-1v-3.6c0,-.8,-.1,-1.4,-1,-1.4Z" class="g1"/>
<path d="M632.4,387.5c-.4,.6,-.9,1.2,-2,1.2c-1.1,-.1,-1.7,-.7,-1.7,-1.7c0,-1.9,1.9,-1.9,3.7,-1.9c.1,-1.1,-.3,-1.6,-1.2,-1.6c-.7,0,-1.2,.2,-1.3,.9l-.9,-.1c.1,-1.1,.9,-1.5,2.2,-1.5c1.4,0,2.2,.6,2.2,1.9v2.4c-.1,.6,.2,1,.8,.8v.6c-.9,.3,-1.8,-.1,-1.8,-1Zm-2.7,-.5c0,.6,.3,.9,.9,.9c1.2,0,1.9,-.8,1.8,-2.2c-1.3,.1,-2.7,-.1,-2.7,1.3Z" class="g1"/>
<path d="M637.7,382.8c2.6,-.1,1.5,3.4,1.7,5.7h-.9v-3.6c0,-.9,-.2,-1.4,-1.2,-1.4c-2.1,.1,-1.3,3,-1.4,5h-1v-5.6h.9c0,.3,0,.7,.1,.9c.3,-.6,.8,-1,1.8,-1Z" class="g1"/>
<path d="M640.8,381.7v-.9h1v.9h-1Zm0,6.8v-5.6h1v5.6h-1Z" class="g1"/>
<path d="M645.9,382.8c1.6,0,2.1,1.2,2.1,2.9c0,1.7,-.5,2.9,-2.1,3c-.9,0,-1.5,-.4,-1.8,-1.1v3.2h-.9v-7.9h.9v.9c.3,-.6,.9,-1,1.8,-1Zm-.2,5.1c1.1,0,1.3,-1,1.3,-2.2c0,-1.2,-.2,-2.2,-1.3,-2.2c-1.3,0,-1.6,1,-1.6,2.3c0,1.2,.3,2.1,1.6,2.1Z" class="g1"/>
<path d="M650.9,388.7c-2.6,.1,-1.6,-3.5,-1.8,-5.8h.9v3.6c0,.9,.3,1.4,1.2,1.4c2.1,0,1.3,-3,1.5,-5h.9v5.6h-.8c-.1,-.3,0,-.7,-.1,-.9c-.3,.6,-.8,1,-1.8,1.1Z" class="g1"/>
<path d="M655.1,388.5v-7.7h.9v7.7h-.9Z" class="g1"/>
<path d="M660.9,387.5c-.5,.6,-.9,1.2,-2,1.2c-1.1,-.1,-1.8,-.7,-1.8,-1.7c0,-1.9,1.9,-1.9,3.8,-1.9c0,-1.1,-.3,-1.6,-1.3,-1.6c-.7,0,-1.2,.2,-1.2,.9l-1,-.1c.2,-1.1,1,-1.5,2.3,-1.5c1.3,0,2.1,.6,2.1,1.9v2.4c0,.6,.2,1,.8,.8v.6c-.9,.3,-1.8,-.1,-1.7,-1Zm-2.8,-.5c0,.6,.4,.9,1,.9c1.2,0,1.8,-.8,1.8,-2.2c-1.3,.1,-2.8,-.1,-2.8,1.3Z" class="g1"/>
<path d="M664.4,387.1c-.1,.8,.5,.9,1.1,.7v.7c-1,.3,-2.1,.2,-2.1,-1.2v-3.7h-.6v-.7h.7l.3,-1.3h.6v1.3h1v.7h-1v3.5Z" class="g1"/>
<path d="M668.6,382.8c1.9,0,2.5,1.2,2.5,3.1h-4c0,1.2,.4,2,1.5,2c.8,.1,1.3,-.3,1.5,-.8l.8,.2c-.3,.8,-1.1,1.4,-2.3,1.4c-1.7,0,-2.6,-1.1,-2.5,-3c0,-1.8,.7,-2.9,2.5,-2.9Zm1.5,2.4c.2,-1.8,-2.2,-2.3,-2.9,-.9c0,.3,-.1,.6,-.1,.9h3Z" class="g1"/>
<path d="M590.5,395.6c1,0,1.5,.4,1.8,1v-3h.9l.1,7.8h-.9c-.1,-.3,0,-.7,-.1,-1c-.3,.7,-.8,1.1,-1.8,1.1c-1.5,0,-2,-1.2,-2,-2.9c0,-2,.6,-3,2,-3Zm.3,.7c-1.2,0,-1.4,1,-1.4,2.2c0,1.2,.2,2.2,1.4,2.2c1.2,0,1.5,-.9,1.5,-2.2c0,-1.3,-.3,-2.2,-1.5,-2.2Z" class="g1"/>
<path d="M598.1,400.3c-.4,.6,-.9,1.2,-2,1.2c-1,0,-1.7,-.6,-1.7,-1.7c0,-1.9,1.9,-1.9,3.7,-1.9c.1,-1,-.3,-1.6,-1.2,-1.6c-.7,.1,-1.2,.2,-1.2,.9h-1c.1,-1.1,1,-1.6,2.2,-1.6c1.4,0,2.2,.6,2.2,1.9v2.4c-.1,.6,.2,1,.8,.8v.6c-.9,.3,-1.8,0,-1.8,-1Zm-2.7,-.5c0,.6,.3,1,.9,1c1.3,-.1,1.9,-.9,1.8,-2.2c-1.3,0,-2.7,-.2,-2.7,1.2Z" class="g1"/>
<path d="M601.7,400c-.1,.7,.5,.8,1.1,.6v.7c-1,.3,-2.1,.2,-2.1,-1.1v-3.8H600v-.7h.8l.2,-1.3h.7v1.3h1v.7h-1V400Z" class="g1"/>
<path d="M607.1,400.3c-.5,.6,-1,1.2,-2.1,1.2c-1,0,-1.7,-.6,-1.7,-1.7c0,-1.9,1.9,-1.9,3.7,-1.9c.1,-1,-.2,-1.6,-1.2,-1.6c-.7,.1,-1.2,.2,-1.2,.9h-1c.1,-1.1,1,-1.6,2.2,-1.6c1.4,0,2.2,.6,2.2,1.9v2.4c-.1,.6,.2,1,.8,.8v.6c-.9,.3,-1.8,0,-1.7,-1Zm-2.8,-.5c0,.6,.4,1,.9,1c1.3,-.1,1.9,-.9,1.8,-2.2c-1.3,0,-2.7,-.2,-2.7,1.2Z" class="g1"/>
<path d="M305.1,463.2l.1,-6.5c-.7,2.3,-1.6,4.3,-2.4,6.5h-.7l-2.4,-6.5l.1,6.5h-.9v-7.3h1.3l2.3,6.2c.6,-2.2,1.5,-4.1,2.3,-6.2H306v7.3h-.9Z" class="g1"/>
<path d="M311.1,462.1c-.5,.7,-.9,1.3,-2,1.2c-1.1,0,-1.8,-.6,-1.8,-1.7c0,-1.9,1.9,-1.8,3.7,-1.8c.1,-1.1,-.2,-1.6,-1.2,-1.6c-.7,0,-1.2,.2,-1.2,.9l-1,-.1c.2,-1.1,1,-1.5,2.3,-1.5c1.3,0,2.1,.5,2.1,1.9v2.4c0,.6,.2,.9,.8,.8v.6c-.9,.3,-1.8,-.1,-1.7,-1.1Zm-2.8,-.5c0,.6,.4,1,1,1c1.2,-.1,1.8,-.8,1.7,-2.2c-1.2,.1,-2.7,-.1,-2.7,1.2Z" class="g1"/>
<path d="M316.3,457.5c2.6,-.2,1.6,3.4,1.8,5.7h-1v-3.6c0,-.9,-.2,-1.4,-1.1,-1.4c-2.2,.1,-1.3,3,-1.5,5h-.9l-.1,-5.6h.9c.1,.3,0,.7,.1,.9c.3,-.6,.9,-1,1.8,-1Z" class="g1"/>
<path d="M323,462.1c-.5,.7,-1,1.3,-2.1,1.2c-1,0,-1.7,-.6,-1.7,-1.7c0,-1.9,1.9,-1.8,3.7,-1.8c.1,-1.1,-.2,-1.6,-1.2,-1.6c-.7,0,-1.2,.2,-1.2,.9l-1,-.1c.1,-1.1,1,-1.5,2.2,-1.5c1.4,0,2.2,.5,2.2,1.9v2.4c-.1,.6,.2,.9,.8,.8v.6c-.9,.3,-1.8,-.1,-1.7,-1.1Zm-2.8,-.5c0,.6,.4,1,.9,1c1.3,-.1,1.9,-.8,1.8,-2.2c-1.2,.1,-2.7,-.1,-2.7,1.2Z" class="g1"/>
<path d="M330,457.6c-.3,3.7,1.2,8.7,-3.3,7.7c-.7,-.2,-1.1,-.6,-1.3,-1.3l.9,-.1c.5,1.4,3,1,2.7,-.8v-.9c-.3,.6,-.9,1,-1.8,1c-1.6,0,-2,-1.2,-2,-2.8c0,-1.7,.4,-2.9,2.1,-2.9c.8,0,1.4,.5,1.7,1c0,-.3,0,-.7,.1,-.9h.9Zm-2.5,5c1.1,0,1.5,-1,1.5,-2.2c0,-1.3,-.4,-2.2,-1.5,-2.2c-1.2,0,-1.4,1,-1.4,2.2c0,1.2,.2,2.2,1.4,2.2Z" class="g1"/>
<path d="M333.6,457.5c1.9,0,2.6,1.2,2.5,3.1h-4c0,1.2,.4,2,1.6,2c.8,.1,1.3,-.3,1.4,-.8l.9,.2c-.4,.8,-1.1,1.3,-2.3,1.3c-1.7,0,-2.6,-1.1,-2.6,-2.9c0,-1.8,.8,-2.9,2.5,-2.9Zm1.6,2.4c.1,-1.8,-2.3,-2.3,-2.9,-.9c-.1,.2,-.2,.5,-.2,.9h3.1Z" class="g1"/>
<path d="M340,458.4c-2.3,-.5,-1.6,2.7,-1.7,4.8h-1v-5.6h.9c0,.3,0,.8,.1,1.1c.1,-.8,.6,-1.4,1.7,-1.2v.9Z" class="g1"/>
<path d="M344,463.2v-7.3h.9v6.5h3.7v.8H344Z" class="g1"/>
<path d="M352,457.5c1.8,-.1,2.5,1.1,2.5,2.9c0,1.9,-.8,2.9,-2.6,2.9c-1.7,0,-2.4,-1.1,-2.5,-2.9c0,-2,.9,-2.9,2.6,-2.9Zm-.1,5.1c1.3,.1,1.6,-.9,1.6,-2.2c0,-1.3,-.2,-2.2,-1.5,-2.2c-1.3,0,-1.6,.9,-1.6,2.2c0,1.3,.3,2.2,1.5,2.2Z" class="g1"/>
<path d="M360.2,457.6c-.3,3.7,1.2,8.7,-3.3,7.7c-.7,-.2,-1.1,-.6,-1.3,-1.3l1,-.1c.4,1.4,2.9,1,2.6,-.8v-.9c-.3,.6,-.8,1,-1.8,1c-1.6,0,-2,-1.2,-2,-2.8c0,-1.7,.5,-2.9,2.1,-2.9c.9,0,1.4,.5,1.7,1c.1,-.3,0,-.7,.1,-.9h.9Zm-2.5,5c1.1,0,1.5,-1,1.5,-2.2c0,-1.3,-.4,-2.2,-1.5,-2.2c-1.1,0,-1.3,1,-1.3,2.2c0,1.2,.1,2.2,1.3,2.2Z" class="g1"/>
<path d="M366.9,457.5c1.8,-.1,2.5,1.1,2.5,2.9c0,1.9,-.8,2.9,-2.6,2.9c-1.7,0,-2.4,-1.1,-2.5,-2.9c0,-2,.9,-2.9,2.6,-2.9Zm-.1,5.1c1.3,.1,1.6,-.9,1.6,-2.2c0,-1.3,-.2,-2.2,-1.5,-2.2c-1.3,0,-1.6,.9,-1.6,2.2c0,1.3,.3,2.2,1.5,2.2Z" class="g1"/>
<path d="M372.3,463.3c-2.6,.2,-1.6,-3.4,-1.8,-5.7h1v3.5c0,1,.2,1.5,1.1,1.5c2.2,-.1,1.4,-3,1.5,-5h.9l.1,5.6h-.9c-.1,-.3,0,-.7,-.1,-1c-.3,.7,-.8,1.1,-1.8,1.1Z" class="g1"/>
<path d="M377.5,461.8c0,.7,.6,.9,1.2,.7v.7c-1,.3,-2.1,.1,-2.1,-1.2v-3.7h-.7v-.7h.7l.3,-1.3h.6v1.3h1.1v.7h-1.1v3.5Z" class="g1"/>
<path d="M420.6,42.6c0,-3.1,2.4,-5.5,5.5,-5.5H783.8c3.4,0,5.5,2.4,5.5,5.5V84c0,3,-2.1,5.5,-5.5,5.5H426.1C423,89.5,420.6,87,420.6,84Z" class="g2"/>
<path d="M497.1,61.7c0,3.5,-2.2,5,-5.6,5c-3.2,0,-5.3,-1.5,-5.3,-4.9V54h2.6v7.6c0,1.9,1,3,2.8,3c4.5,.1,2.4,-6.5,2.9,-10.6h2.6v7.7Z" class="g3"/>
<path d="M509.6,66.5l.1,-10.3l-3.2,10.3h-1.8L501.5,56.2l.1,10.3h-2.3V54h3.5l2.8,9.3L508.5,54h3.4V66.5h-2.3Z" class="g3"/>
<path d="M514.3,66.5V54h2.6V64.5h6.7v2h-9.3Z" class="g3"/>
<path d="M537.1,57.3c0,-2.1,-4.7,-2.3,-4.8,-.1c.9,3.3,7.6,.5,7.7,5.7c.2,4.8,-8.3,4.7,-10.2,1.8c-.3,-.4,-.5,-.9,-.6,-1.5l2.5,-.4c.1,2.3,5.6,2.8,5.8,.3c-.9,-3.5,-7.5,-.5,-7.7,-5.8c-.2,-4.3,7.6,-4.4,9.4,-1.7c.3,.4,.4,.9,.5,1.4Z" class="g3"/>
<path d="M546.5,66.3c-1.8,.7,-4.4,.4,-4.4,-2.1V58.6h-1.2V56.9h1.4l.7,-2.2h1.6v2.2h1.8v1.7h-1.8v5c-.1,1.1,.8,1.5,1.9,1.2v1.5Z" class="g3"/>
<path d="M553.3,64.8c-.8,.9,-1.5,1.9,-3.2,1.9c-1.8,-.1,-2.9,-1,-2.9,-2.9c0,-3,2.8,-3.2,5.8,-3.1c.1,-1.3,-.1,-2.4,-1.4,-2.4c-.9,.1,-1.3,.5,-1.4,1.4l-2.6,-.1c.4,-1.9,1.8,-2.9,4.1,-2.9c2.3,.1,3.7,1.1,3.8,3.5v4.1c0,.7,.6,.9,1.3,.7v1.4c-1.5,.4,-3.6,.2,-3.5,-1.6Zm-2.4,.1c1.5,0,2.2,-1.2,2.1,-2.8c-1.6,0,-3.3,-.2,-3.2,1.5c0,.8,.4,1.3,1.1,1.3Z" class="g3"/>
<path d="M562.4,66.3c-1.8,.7,-4.3,.4,-4.3,-2.1V58.6h-1.2V56.9h1.3l.8,-2.2h1.5v2.2h1.8v1.7h-1.8v5c0,1.1,.8,1.5,1.9,1.2v1.5Z" class="g3"/>
<path d="M571.9,64.1c-.7,1.5,-1.9,2.6,-4.1,2.6c-3,-.1,-4.5,-1.9,-4.5,-5c0,-3.2,1.5,-5,4.5,-5c3.1,0,4.2,2.3,4.2,5.5h-6.1c0,1.5,.4,2.7,2,2.8c.9,0,1.5,-.4,1.7,-1.1Zm-2.3,-3.5c.3,-2.3,-2.8,-3.2,-3.5,-1c-.1,.3,-.2,.6,-.2,1h3.7Z" class="g3"/>
<path d="M578.8,54c6,-.3,11.2,.3,11.1,6.2c0,4,-2.2,6.3,-6.1,6.3h-5V54Zm2.6,10.5c3.7,.3,5.9,-.9,5.9,-4.3c0,-3.4,-2.3,-4.5,-5.9,-4.2v8.5Z" class="g3"/>
<path d="M591.9,55.2V53.4h2.5v1.8h-2.5Zm0,11.3V56.9h2.5v9.6h-2.5Z" class="g3"/>
<path d="M602.3,64.8c-.8,.9,-1.5,1.9,-3.2,1.9c-1.9,-.1,-2.9,-1,-2.9,-2.9c-.1,-3,2.7,-3.2,5.8,-3.1c0,-1.3,-.2,-2.4,-1.4,-2.4c-.9,.1,-1.3,.5,-1.4,1.4l-2.6,-.1c.3,-1.9,1.8,-2.9,4.1,-2.9c2.3,.1,3.7,1.1,3.7,3.5l.1,4.1c-.1,.7,.6,.9,1.2,.7v1.4c-1.5,.4,-3.5,.2,-3.4,-1.6Zm-2.4,.1c1.4,0,2.1,-1.2,2.1,-2.8c-1.6,0,-3.3,-.2,-3.3,1.5c0,.8,.4,1.3,1.2,1.3Z" class="g3"/>
<path d="M615.4,66.2c.5,4.4,-6,5.3,-8.2,2.6c-.2,-.3,-.3,-.7,-.4,-1.1l2.4,-.3c.2,.8,.8,1.2,1.7,1.3c2,0,2.1,-1.9,2,-4c-.5,1.1,-1.5,1.8,-3,1.8c-2.7,0,-3.5,-2.2,-3.5,-4.9c0,-2.8,.9,-4.8,3.6,-4.9c1.5,0,2.3,.7,3,1.7l.1,-1.5h2.3Zm-4.5,-1.5c1.6,0,2,-1.3,2,-3.1c0,-1.8,-.4,-3.2,-2,-3.2c-1.6,0,-1.9,1.5,-2,3.2c0,1.8,.5,3.1,2,3.1Z" class="g3"/>
<path d="M623.4,59c-2,-.7,-3.1,.6,-3.1,2.8v4.7h-2.5V56.9h2.3c.1,.7,0,1.5,.2,2.1c.3,-1.5,1.3,-2.7,3.1,-2.1V59Z" class="g3"/>
<path d="M630.3,64.8c-.8,.9,-1.5,1.9,-3.2,1.9c-1.9,-.1,-2.9,-1,-2.9,-2.9c-.1,-3,2.7,-3.2,5.8,-3.1c0,-1.3,-.2,-2.4,-1.4,-2.4c-.9,.1,-1.3,.5,-1.4,1.4l-2.6,-.1c.3,-1.9,1.8,-2.9,4.1,-2.9c2.3,.1,3.7,1.1,3.7,3.5l.1,4.1c-.1,.7,.6,.9,1.2,.7v1.4c-1.5,.4,-3.5,.2,-3.4,-1.6Zm-2.4,.1c1.4,0,2.1,-1.2,2.1,-2.8c-1.6,0,-3.3,-.2,-3.3,1.5c0,.8,.4,1.3,1.2,1.3Z" class="g3"/>
<path d="M644.6,58.6c-2.6,.5,-1.4,5,-1.7,7.9h-2.4V61.1c0,-1.3,-.3,-2.5,-1.5,-2.5c-2.6,.5,-1.3,5,-1.6,7.9h-2.5l-.1,-9.6h2.4c.1,.6,-.1,1.4,.1,1.9c.5,-2.6,5.1,-2.8,5.4,0c.7,-1.1,1.2,-2.1,3,-2.1c4.1,.1,2.5,5.9,2.8,9.8h-2.4V61.1c-.1,-1.2,-.3,-2.4,-1.5,-2.5Z" class="g3"/>
<path d="M661.5,56.7c2.6,0,3.5,2.3,3.5,5c0,2.8,-1,4.9,-3.7,5c-1.5,0,-2.2,-.9,-2.9,-1.7c.1,1.6,.1,3.4,.1,5.2H656l-.1,-13.3h2.4c.1,.5,0,1.2,.2,1.6c.5,-1.2,1.4,-1.8,3,-1.8ZM660.4,65c1.7,0,2,-1.6,2,-3.3c0,-1.9,-.4,-3.3,-2,-3.3c-2.8,0,-2.7,6.6,0,6.6Z" class="g3"/>
<path d="M672.4,59c-1.9,-.7,-3,.6,-3,2.8v4.7h-2.5V56.9h2.3c.1,.7,0,1.5,.2,2.1c.3,-1.5,1.3,-2.7,3,-2.1V59Z" class="g3"/>
<path d="M678.2,56.7c3.2,0,4.8,1.8,4.8,5c0,3.2,-1.8,5,-4.9,5c-3,0,-4.7,-1.8,-4.7,-5c0,-3.1,1.7,-5,4.8,-5Zm-.1,8.3c1.8,0,2.3,-1.4,2.3,-3.3c0,-2,-.5,-3.3,-2.2,-3.3c-1.7,0,-2.2,1.4,-2.2,3.3c0,1.8,.5,3.3,2.1,3.3Z" class="g3"/>
<path d="M684.9,55.2V53.4h2.5v1.8h-2.5Zm2.5,12.4c.1,2.2,-1.7,2.9,-4.1,2.5V68.4c1.1,.2,1.6,-.3,1.6,-1.4V56.9h2.5V67.6Z" class="g3"/>
<path d="M697.9,64.1c-.6,1.5,-1.8,2.6,-4.1,2.6c-3,-.1,-4.4,-1.9,-4.4,-5c0,-3.2,1.5,-5,4.5,-5c3.1,0,4.1,2.3,4.2,5.5H692c0,1.5,.4,2.7,1.9,2.8c.9,0,1.5,-.4,1.7,-1.1Zm-2.2,-3.5c.2,-2.3,-2.9,-3.2,-3.5,-1c-.1,.3,-.2,.6,-.2,1h3.7Z" class="g3"/>
<path d="M708.2,63.3c-.4,2.1,-1.9,3.4,-4.3,3.4c-3,0,-4.2,-1.9,-4.5,-4.9c-.6,-5.6,7.7,-6.9,8.7,-1.8l-2.5,.1c-.1,-1,-.7,-1.7,-1.7,-1.7c-1.5,0,-1.8,1.5,-1.9,3.3c-.3,3.7,3.2,4.3,3.7,1.5Z" class="g3"/>
<path d="M714.4,66.3c-1.8,.7,-4.3,.4,-4.3,-2.1V58.6h-1.2V56.9h1.3l.8,-2.2h1.5v2.2h1.8v1.7h-1.8v5c0,1.1,.8,1.5,1.9,1.2v1.5Z" class="g3"/>
<path d="M728.7,57.3c0,4,-4.2,4.4,-5.5,7.1h5.7v2.1h-8.7c-.3,-5.1,5,-5,6,-9.1c.1,-1.1,-.6,-1.5,-1.6,-1.6c-1.2,0,-1.6,.7,-1.8,1.7l-2.4,-.1c.2,-2.3,1.6,-3.5,4.2,-3.5c2.5,0,4.1,1.1,4.1,3.4Z" class="g3"/>
<path d="M425.8,87.8H784.4m-358.6,0H423m361.4,0h2.8" class="g4"/>
<path d="M420.3,82.6c0,-3.1,2.4,-5.5,5.5,-5.5h358c3.4,0,5.5,2.4,5.5,5.5v2.7c0,3,-2.1,5.5,-5.5,5.5h-358c-3.1,0,-5.5,-2.5,-5.5,-5.5Z" class="g2"/>
<path d="M539.3,90V83.6c-.6,2.3,-1.5,4.3,-2.3,6.4h-.7L534,83.6V90h-.9V82.8h1.3l2.3,6.1c.6,-2.2,1.5,-4.1,2.2,-6.1h1.2V90h-.8Z" class="g3"/>
<path d="M543.9,84.3c1.8,0,2.5,1.1,2.5,2.9c0,1.9,-.8,2.9,-2.5,2.9c-1.7,0,-2.4,-1.1,-2.5,-2.9c0,-1.9,.9,-2.9,2.5,-2.9Zm0,5.1c1.3,0,1.5,-.9,1.5,-2.2c0,-1.2,-.2,-2.2,-1.5,-2.2c-1.2,0,-1.5,1,-1.5,2.2c0,1.3,.3,2.2,1.5,2.2Z" class="g3"/>
<path d="M549.9,85.1c-2.1,0,-1.3,2.9,-1.4,4.9h-.9V82.4h.9v3c.3,-.6,.8,-1.1,1.8,-1.1c2.6,0,1.5,3.4,1.7,5.7h-.9V86.5c0,-1,-.3,-1.5,-1.2,-1.4Z" class="g3"/>
<path d="M556.8,88.9c-.4,.7,-.9,1.2,-2,1.2c-1,0,-1.7,-.6,-1.7,-1.6c0,-1.9,1.9,-1.9,3.7,-1.9c.1,-1,-.3,-1.6,-1.2,-1.6c-.7,.1,-1.2,.2,-1.3,.9h-.9c.1,-1.1,.9,-1.6,2.2,-1.6c1.3,0,2.1,.6,2.1,1.9v2.4c0,.6,.2,.9,.8,.8V90c-.9,.2,-1.8,-.1,-1.7,-1.1Zm-2.7,-.4c0,.5,.3,.9,.9,.9c1.2,-.1,1.9,-.8,1.8,-2.1c-1.3,0,-2.7,-.2,-2.7,1.2Z" class="g3"/>
<path d="M564.7,85.1c-2,.1,-1.2,3,-1.3,4.9h-.9V86.5c0,-.9,-.2,-1.5,-1.1,-1.4c-1.9,.1,-1.1,3,-1.2,4.9h-1V84.5h.9c0,.2,0,.7,.1,.9c.2,-1.3,2.8,-1.5,3.1,0c.3,-.6,.8,-1,1.7,-1.1c2.5,0,1.3,3.5,1.6,5.7h-.9V86.5c0,-.9,-.2,-1.5,-1,-1.4Z" class="g3"/>
<path d="M570.2,84.3c1.8,0,2.5,1.3,2.4,3.1h-3.9c0,1.2,.4,2,1.5,2c.8,0,1.3,-.3,1.5,-.8l.8,.2c-.3,.8,-1.1,1.3,-2.3,1.3c-1.7,0,-2.5,-1.1,-2.5,-2.9c0,-1.8,.7,-2.9,2.5,-2.9Zm1.5,2.4c.2,-1.8,-2.2,-2.2,-2.8,-.8c-.1,.2,-.2,.5,-.2,.8h3Z" class="g3"/>
<path d="M575.6,84.3c.9,0,1.4,.4,1.7,1V82.4h.9l.1,7.6h-.9c-.1,-.3,0,-.7,-.1,-.9c-.3,.7,-.8,1,-1.7,1c-1.6,0,-2,-1.1,-2.1,-2.8c0,-2,.7,-3,2.1,-3Zm.2,.7c-1.1,0,-1.3,1,-1.3,2.2c0,1.2,.2,2.2,1.3,2.2c1.2,0,1.5,-.9,1.5,-2.2c0,-1.3,-.3,-2.2,-1.5,-2.2Z" class="g3"/>
<path d="M588.6,92.2V82.4h.9v9.8h-.9Z" class="g3"/>
<path d="M597.1,82.8c3.5,-.2,6.4,.2,6.3,3.5c-.1,2.3,-1.3,3.7,-3.6,3.7h-2.7V82.8Zm1,6.4c2.6,.2,4.3,-.5,4.3,-2.9c0,-2.4,-1.8,-2.9,-4.3,-2.8v5.7Z" class="g3"/>
<path d="M606.8,84.3c1.8,0,2.5,1.3,2.4,3.1h-3.9c0,1.2,.4,2,1.5,2c.8,0,1.3,-.3,1.4,-.8l.9,.2c-.4,.8,-1.1,1.3,-2.3,1.3c-1.7,0,-2.6,-1.1,-2.5,-2.9c0,-1.8,.7,-2.9,2.5,-2.9Zm1.5,2.4c.1,-1.8,-2.2,-2.2,-2.9,-.8c0,.2,-.1,.5,-.1,.8h3Z" class="g3"/>
<path d="M612.5,85.1c-1.2,0,-1.4,.9,-1.4,2.1c0,1.2,.2,2.2,1.4,2.2c.7,0,1.2,-.4,1.2,-1.1h1c-.2,1.1,-.9,1.8,-2.2,1.8c-1.7,0,-2.2,-1.2,-2.4,-2.9c-.3,-2.7,3,-3.8,4.3,-1.8c.1,.2,.2,.4,.2,.6l-.9,.1c-.1,-.6,-.5,-1,-1.2,-1Z" class="g3"/>
<path d="M617.9,84.3c1.8,0,2.5,1.3,2.4,3.1h-3.9c0,1.2,.4,2,1.5,2c.8,0,1.3,-.3,1.4,-.8l.9,.2c-.4,.8,-1.1,1.3,-2.3,1.3c-1.7,0,-2.6,-1.1,-2.5,-2.9c0,-1.8,.7,-2.9,2.5,-2.9Zm1.5,2.4c.1,-1.8,-2.2,-2.2,-2.9,-.8c-.1,.2,-.1,.5,-.1,.8h3Z" class="g3"/>
<path d="M626.9,85.1c-2,.1,-1.1,3,-1.3,4.9h-.9V86.5c0,-.9,-.1,-1.5,-1,-1.4c-1.9,.1,-1.1,3,-1.3,4.9h-.9V84.5h.8c.1,.2,0,.7,.1,.9c.3,-1.3,2.9,-1.5,3.1,0c.4,-.6,.8,-1,1.7,-1.1c2.5,0,1.4,3.5,1.6,5.7h-.9V86.5c0,-.9,-.1,-1.5,-1,-1.4Z" class="g3"/>
<path d="M632.9,84.3c1.5,0,2,1.2,2,2.9c0,1.9,-.7,2.9,-2,2.9c-.9,0,-1.5,-.3,-1.8,-1V90h-.9V82.4h.9v2.9c.3,-.6,.9,-1,1.8,-1Zm-.3,5.1c1.2,0,1.3,-1,1.3,-2.2c0,-1.1,-.1,-2.2,-1.3,-2.1c-1.2,0,-1.5,.9,-1.5,2.2c0,1.2,.3,2.1,1.5,2.1Z" class="g3"/>
<path d="M638.3,84.3c1.8,0,2.5,1.3,2.4,3.1h-3.9c0,1.2,.4,2,1.5,2c.8,0,1.3,-.3,1.5,-.8l.8,.2c-.3,.8,-1.1,1.3,-2.3,1.3c-1.7,0,-2.5,-1.1,-2.5,-2.9c0,-1.8,.7,-2.9,2.5,-2.9Zm1.5,2.4c.2,-1.8,-2.2,-2.2,-2.8,-.8c-.1,.2,-.2,.5,-.2,.8h3Z" class="g3"/>
<path d="M644.5,85.2c-2.3,-.4,-1.5,2.7,-1.6,4.8h-1V84.5h.9c0,.3,-.1,.8,0,1.1c.2,-.8,.7,-1.4,1.7,-1.2v.8Z" class="g3"/>
<path d="M650.5,82.7c2.4,-.2,2.7,2.5,1.3,3.8L650,88.1c-.4,.4,-.7,.7,-.9,1.1h3.8V90h-4.8c0,-2.9,3.7,-2.7,3.7,-5.3c0,-.8,-.4,-1.3,-1.3,-1.3c-.8,0,-1.3,.5,-1.4,1.2l-1,-.1c.2,-1.2,1,-1.7,2.4,-1.8Z" class="g3"/>
<path d="M655.4,88.9c0,1,0,1.9,-.4,2.4h-.7c.3,-.3,.5,-.7,.5,-1.3h-.4V88.9h1Z" class="g3"/>
<path d="M662.2,82.7c2.4,-.2,2.7,2.5,1.2,3.8l-1.8,1.6c-.3,.4,-.6,.7,-.8,1.1h3.8V90h-4.8c0,-2.9,3.7,-2.7,3.7,-5.3c0,-.8,-.5,-1.3,-1.3,-1.3c-.9,0,-1.3,.5,-1.4,1.2l-1,-.1c.2,-1.2,1,-1.7,2.4,-1.8Z" class="g3"/>
<path d="M668,82.7c2,0,2.5,1.6,2.5,3.7c0,2.1,-.6,3.7,-2.5,3.7c-2,0,-2.5,-1.6,-2.5,-3.7c0,-2.2,.5,-3.7,2.5,-3.7Zm0,6.7c1.4,0,1.6,-1.5,1.6,-3c0,-1.6,-.1,-3,-1.6,-3c-1.5,0,-1.6,1.4,-1.6,3c0,1.5,.2,3,1.6,3Z" class="g3"/>
<path d="M671.7,90v-.8h1.9V83.7l-1.7,1.1V84l1.7,-1.2h.9v6.4h1.8V90h-4.6Z" class="g3"/>
<path d="M679.7,82.7c1.8,0,2.4,1.4,2.4,3.5c0,2.7,-1.5,4.8,-4,3.6c-.4,-.2,-.5,-.7,-.7,-1.2l.9,-.1c.2,1.1,2,1.1,2.4,.2c.3,-.6,.5,-1.3,.5,-2.2c-.3,.6,-.9,1,-1.8,1c-1.4,0,-2.1,-.9,-2.1,-2.4c0,-1.6,.8,-2.4,2.4,-2.4Zm-.1,4.1c.9,0,1.5,-.5,1.5,-1.4c0,-1.1,-.4,-2,-1.5,-2c-1,0,-1.4,.7,-1.4,1.7c0,1,.4,1.7,1.4,1.7Z" class="g3"/>
<path d="M327.3,302.5c-6.1,0,-11,5,-11,11v33c0,6.1,4.9,11,11,11h88c6,0,11,-4.9,11,-11v-33c0,-6,-5,-11,-11,-11Z" class="g5"/>
<path d="M327.3,302.5c-6.1,0,-11,5,-11,11v33c0,6.1,4.9,11,11,11h88c6,0,11,-4.9,11,-11v-33c0,-6,-5,-11,-11,-11Z" class="g6"/>
<path d="M339.6,332.1l1.4,-7.3h1l-1.2,6.5h3.7l-.2,.8h-4.7Z" class="g0"/>
<path d="M346.1,327.8c.9,-1.9,4.9,-2,4.7,.8c-.2,2.1,-.9,3.6,-3,3.7c-2.3,.1,-2.6,-2.8,-1.7,-4.5Zm1.7,3.7c1.6,0,2,-1.4,2,-2.9c0,-.9,-.3,-1.5,-1.3,-1.5c-1.5,0,-2,1.4,-2,2.9c0,.9,.4,1.5,1.3,1.5Z" class="g0"/>
<path d="M354.2,326.4c.9,0,1.4,.4,1.7,1c0,-.3,.1,-.6,.2,-.9h.9l-1.1,5.5c-.1,1.9,-2.3,3,-4.1,2c-.4,-.2,-.5,-.5,-.6,-1l.8,-.2c.2,1.3,2.5,.9,2.7,-.1c.2,-.4,.3,-1.1,.4,-1.6c-.4,.6,-.8,1.1,-1.8,1.1c-1.2,0,-1.8,-.8,-1.8,-1.9c0,-2.1,.7,-3.9,2.7,-3.9Zm.1,.7c-1.5,0,-1.7,1.6,-1.8,3.1c0,.8,.3,1.3,1.1,1.3c1.4,0,1.9,-1.5,2,-3c0,-.9,-.5,-1.4,-1.3,-1.4Z" class="g0"/>
<path d="M358.6,325.3l.2,-.9h.9l-.2,.9h-.9Zm-1.3,6.8l1.1,-5.6h.9l-1.1,5.6h-.9Z" class="g0"/>
<path d="M361.4,327.4c.7,-1.4,3.9,-1.5,3.5,.9l-.8,3.8h-.9l.7,-4.1c.1,-1.1,-1.6,-1,-2.1,-.4c-.8,1.1,-.9,3,-1.2,4.5h-1l1.1,-5.6h.9Z" class="g0"/>
<path d="M372.7,332.1h-1.1l-.5,-6.3l-.7,1.7l-2.2,4.6H367l-.7,-7.3h1l.5,6.4l3,-6.4h1l.5,6.4l3,-6.4h1Z" class="g0"/>
<path d="M376.8,325.3l.2,-.9h1l-.2,.9h-1Zm-1.3,6.8l1.1,-5.6h1l-1.1,5.6h-1Z" class="g0"/>
<path d="M379.7,327.4c.6,-1.4,3.9,-1.5,3.4,.9l-.7,3.8h-1l.8,-4.1c.1,-1.1,-1.6,-1,-2.1,-.4c-.9,1.1,-.9,3,-1.3,4.5h-.9l1,-5.6h.9Z" class="g0"/>
<path d="M387.6,331.3c-.9,1.6,-4.1,1.1,-3.6,-1.4c.4,-1.9,.7,-3.5,2.7,-3.5c.9,-.1,1.4,.4,1.7,1l.5,-3h1l-1.5,7.7h-.9ZM385,330.2c-.1,.8,.3,1.3,1,1.3c1.6,0,2.1,-1.5,2.1,-3c0,-.9,-.5,-1.4,-1.3,-1.4c-1.6,0,-1.7,1.7,-1.8,3.1Z" class="g0"/>
<path d="M390.5,327.8c.9,-1.9,4.9,-2,4.7,.8c-.2,2.1,-.9,3.6,-3.1,3.7c-2.3,.1,-2.5,-2.8,-1.6,-4.5Zm1.7,3.7c1.6,0,2,-1.4,2,-2.9c0,-.9,-.3,-1.5,-1.3,-1.5c-1.5,0,-2,1.4,-2,2.9c0,.9,.4,1.5,1.3,1.5Z" class="g0"/>
<path d="M401.1,332.1H400l-.2,-4.8l-2.2,4.8h-1.1l-.4,-5.6h.9l.2,4.9l2.2,-4.9h1l.3,4.9l2.2,-4.9h.9Z" class="g0"/>
<path d="M394.8,233.8c0,7.5,-6.2,13.7,-13.8,13.7c-7.5,0,-13.7,-6.2,-13.7,-13.7c0,-7.6,6.2,-13.8,13.7,-13.8c7.6,0,13.8,6.2,13.8,13.8Z" class="g7"/>
<path d="M394.8,233.8c0,7.5,-6.2,13.7,-13.8,13.7c-7.5,0,-13.7,-6.2,-13.7,-13.7c0,-7.6,6.2,-13.8,13.7,-13.8c7.6,0,13.8,6.2,13.8,13.8Z" class="g8"/>
<path d="M381.4,275.6h-9.8v15.6h-.7V274.9h9.8V272h.7Zm0,-14.6h-.7V248.2h.7Z" class="g1"/>
<path d="M381,247.8h.4v.4h-.7v-.4Z" class="g1"/>
<path d="M371.3,301.4l-3.2,-9.8h6.3Z" class="g1"/>
<path d="M371.3,302.5l-3.7,-11.3h7.3Zm-2.7,-10.6l2.7,8.4l2.6,-8.4Z" class="g1"/>
<path d="M364,261.8c2,0,3.1,1.2,3.1,3.3c0,2,-1.1,3.2,-3.1,3.2c-2.1,0,-3.2,-1.2,-3.2,-3.2c0,-2.1,1.1,-3.3,3.2,-3.3Zm0,5.8c1.6,0,2.2,-1,2.2,-2.5c0,-1.6,-.7,-2.6,-2.2,-2.6c-1.6,0,-2.3,1,-2.3,2.6c0,1.5,.7,2.5,2.3,2.5Z" class="g1"/>
<path d="M370.4,263.3c1.4,0,1.8,1,1.8,2.5c0,1.4,-.4,2.5,-1.8,2.5c-.7,0,-1.2,-.3,-1.5,-.8v2.6h-.8v-6.7h.8v.8c.3,-.6,.8,-.9,1.5,-.9Zm-.2,4.4c1.1,0,1.2,-.8,1.2,-1.9c0,-1,-.2,-1.8,-1.2,-1.9c-1,0,-1.3,.8,-1.3,2c0,1.1,.3,1.8,1.3,1.8Z" class="g1"/>
<path d="M375.2,263.3c1.6,0,2.1,1.1,2.1,2.7h-3.4c0,1,.3,1.7,1.3,1.7c.7,.1,1.1,-.3,1.3,-.7l.7,.2c-.3,.7,-1,1.1,-2,1.1c-1.5,0,-2.2,-.9,-2.2,-2.5c0,-1.6,.7,-2.5,2.2,-2.5Zm1.3,2.1c.1,-1.6,-2,-2,-2.5,-.8c-.1,.2,-.1,.5,-.1,.8h2.6Z" class="g1"/>
<path d="M380.7,263.3c2.2,-.1,1.3,2.9,1.5,4.9h-.8v-3c0,-.8,-.2,-1.3,-1,-1.3c-1.8,.1,-1.1,2.6,-1.2,4.3h-.9v-4.8h.8c0,.3,-.1,.6,0,.8c.3,-.5,.8,-.9,1.6,-.9Z" class="g1"/>
<path d="M390.6,268.2l-.8,-1.8H387l-.7,1.8h-.9l2.5,-6.3h1l2.5,6.3h-.8Zm-1,-2.5l-1.2,-3.1c-.3,1.1,-.8,2.1,-1.2,3.1h2.4Z" class="g1"/>
<path d="M394.4,263.3c1.4,0,1.8,1,1.8,2.5c0,1.4,-.5,2.5,-1.8,2.5c-.8,0,-1.3,-.3,-1.6,-.8l.1,2.6h-.8l-.1,-6.7h.8l.1,.8c.2,-.6,.7,-.9,1.5,-.9Zm-.2,4.4c1,0,1.1,-.8,1.1,-1.9c0,-1,-.1,-1.8,-1.1,-1.9c-1.1,0,-1.3,.8,-1.3,2c0,1.1,.2,1.8,1.3,1.8Z" class="g1"/>
<path d="M399.5,263.3c1.4,0,1.7,1,1.7,2.5c0,1.4,-.4,2.5,-1.7,2.5c-.8,0,-1.3,-.3,-1.6,-.8l.1,2.6h-.9v-6.7h.8l.1,.8c.2,-.6,.7,-.9,1.5,-.9Zm-.2,4.4c1,0,1.1,-.8,1.1,-1.9c0,-1,-.1,-1.8,-1.1,-1.9c-1.1,0,-1.3,.8,-1.3,2c0,1.1,.2,1.8,1.3,1.8Z" class="g1"/>
<path d="M762.4,330.3H426.6v-.6H762.4Z" class="g1"/>
<path d="M426.6,330.3h-.3v-.6h.3Z" class="g1"/>
<path d="M772.8,330l-10.4,3.2v-6.4Z" class="g1"/>
<path d="M773.4,330l-11,3.6v-7.2Zm-10.3,2.7l8.3,-2.7l-8.3,-2.7Z" class="g1"/>
<path d="M529.3,321.1c-.6,1.7,1.6,2.5,2.8,1.5c1.1,-1.1,.9,-3.6,1.4,-5.3h.9c-.7,2.6,-.2,6.4,-3.7,6.4c-1.7,0,-2.5,-1.2,-2.2,-3l.7,-3.4h.8Z" class="g1"/>
<path d="M535.7,319.9c.3,1.3,2.7,.6,2.7,2.3c0,1.9,-3.7,2,-4.1,.4l.7,-.3c.2,1,2.6,1.1,2.6,-.1C537.3,321,535,321.6,535,320c0,-1.8,3.6,-1.8,3.7,-.2l-.7,.1c-.1,-.9,-2.2,-.9,-2.3,0Z" class="g1"/>
<path d="M541.7,318.6c1.6,0,2.2,1.2,1.9,2.7H540c-.1,1,.2,1.8,1.2,1.8c.7,-.1,1.1,-.4,1.3,-.8l.7,.2c-.4,.7,-1,1.2,-2.1,1.2c-1.2,0,-1.9,-.7,-1.9,-1.9c0,-1.8,.8,-3.1,2.5,-3.2Zm1.1,2.1c.4,-1.7,-1.8,-1.8,-2.4,-.7c-.1,.2,-.2,.4,-.3,.7h2.7Z" class="g1"/>
<path d="M545.7,319.7c.3,-.6,.7,-1.3,1.7,-1l-.2,.7c-2.1,-.3,-1.7,2.5,-2.2,4.2h-.9l1,-4.9h.7Z" class="g1"/>
<path d="M552.4,318.6c1.6,0,2.2,1.2,1.8,2.7h-3.5c-.2,1,.2,1.8,1.2,1.8c.6,-.1,1.1,-.4,1.3,-.8l.6,.2c-.4,.7,-.9,1.2,-2,1.2c-1.3,0,-1.9,-.7,-1.9,-1.9c0,-1.8,.8,-3.1,2.5,-3.2Zm1.1,2.1c.4,-1.7,-1.8,-1.8,-2.4,-.7c-.1,.2,-.2,.4,-.3,.7h2.7Z" class="g1"/>
<path d="M556.4,319.6c.5,-1.3,3.3,-1.4,2.9,.7l-.6,3.3h-.8l.6,-3.6c.1,-1,-1.3,-.8,-1.8,-.3c-.7,.9,-.7,2.6,-1.1,3.9h-.8l.9,-4.9h.8Z" class="g1"/>
<path d="M561,322.2c-.2,.6,.2,1,.8,.8v.6c-1,.3,-1.8,-.1,-1.6,-1.3l.6,-3h-.6l.2,-.6h.5l.5,-1.1h.5l-.2,1.1h.9l-.1,.6h-.9Z" class="g1"/>
<path d="M565.1,318.6c1.6,0,2.2,1.2,1.9,2.7h-3.6c-.1,1,.2,1.8,1.2,1.8c.7,-.1,1.1,-.4,1.3,-.8l.6,.2c-.3,.7,-.9,1.2,-2,1.2c-1.2,0,-1.9,-.7,-1.9,-1.9c0,-1.8,.8,-3.1,2.5,-3.2Zm1.1,2.1c.4,-1.7,-1.8,-1.8,-2.4,-.7c-.1,.2,-.2,.4,-.3,.7h2.7Z" class="g1"/>
<path d="M569.1,319.7c.3,-.6,.7,-1.3,1.6,-1l-.1,.7c-2.1,-.3,-1.7,2.5,-2.2,4.2h-.9l1,-4.9h.7Z" class="g1"/>
<path d="M571.8,319.9c.3,1.3,2.7,.6,2.7,2.3c0,1.9,-3.7,2,-4.1,.4l.7,-.3c.2,1,2.6,1.1,2.6,-.1c-.3,-1.2,-2.6,-.6,-2.6,-2.2c0,-1.8,3.6,-1.8,3.7,-.2l-.7,.1c-.1,-.9,-2.2,-.9,-2.3,0Z" class="g1"/>
<path d="M581.8,322.4c-.1,.4,0,.8,.5,.6v.6c-.8,.2,-1.6,0,-1.4,-.9c-.4,.5,-.8,1,-1.7,1c-.9,0,-1.4,-.5,-1.4,-1.4c0,-1.7,1.8,-1.7,3.5,-1.7c.2,-.6,0,-1.4,-.8,-1.3c-.7,0,-1.1,.2,-1.2,.7l-.8,-.1c.2,-1.7,4,-1.8,3.6,.4c-.1,.7,-.2,1.4,-.3,2.1Zm-3.2,-.1c.1,1.3,2.1,.6,2.3,-.1c.2,-.4,.2,-.7,.3,-1c-1.2,0,-2.7,-.1,-2.6,1.1Z" class="g1"/>
<path d="M584.4,319.6c.5,-1.3,3.3,-1.4,2.9,.7l-.6,3.3h-.8l.6,-3.6c.1,-1,-1.4,-.8,-1.8,-.3c-.7,.9,-.8,2.6,-1.1,3.9h-.8l.9,-4.9h.8Z" class="g1"/>
<path d="M595,323.6l-.3,-1.9h-2.9l-1,1.9h-1l3.8,-6.3h1l1.3,6.3H595Zm-.4,-2.5l-.6,-3.2l-1.8,3.2h2.4Z" class="g1"/>
<path d="M599.8,322.9c-.8,1.3,-3.5,.9,-3.1,-1.3c.4,-1.6,.6,-2.9,2.3,-3c.8,0,1.2,.4,1.4,.9l.5,-2.6h.8l-1.2,6.7h-.8Zm-2.3,-1c0,.7,.3,1.1,.9,1.1c1.4,0,1.8,-1.2,1.8,-2.6c0,-.7,-.4,-1.1,-1.1,-1.1c-1.3,-.1,-1.5,1.4,-1.6,2.6Z" class="g1"/>
<path d="M607.8,320.8c.2,-.7,.2,-1.6,-.6,-1.5c-1.8,.2,-1.5,2.7,-2,4.3h-.8l.7,-3.6c.1,-1,-1.3,-.8,-1.6,-.3c-.7,1,-.7,2.6,-1.1,3.9h-.8l1,-4.9h.7c0,.3,-.1,.7,-.1,.9c.4,-1.1,2.6,-1.4,2.7,.1c.3,-.6,.7,-1.1,1.5,-1.1c2.3,0,.8,3.3,.6,5h-.8Z" class="g1"/>
<path d="M610.4,317.7l.1,-.8h.8l-.1,.8h-.8Zm-1.1,5.9l.9,-4.9h.8l-1,4.9h-.7Z" class="g1"/>
<path d="M612.8,319.6c.6,-1.3,3.4,-1.4,3,.7l-.7,3.3h-.8L615,320c0,-1,-1.4,-.8,-1.8,-.3c-.8,.9,-.8,2.6,-1.1,3.9h-.8l.9,-4.9h.7Z" class="g1"/>
<path d="M624.8,319c0,2.2,-2.2,2.2,-4.4,2.1l-.5,2.5H619l1.3,-6.3c2,0,4.5,-.3,4.5,1.7Zm-.9,0c0,-1.3,-1.6,-1,-2.9,-1l-.5,2.4c1.6,0,3.4,.3,3.4,-1.4Z" class="g1"/>
<path d="M629.1,322.4c-.1,.4,0,.8,.5,.6v.6c-.8,.2,-1.6,0,-1.4,-.9c-.4,.5,-.8,1,-1.7,1c-.9,0,-1.4,-.5,-1.4,-1.4c0,-1.7,1.8,-1.7,3.5,-1.7c.2,-.6,0,-1.4,-.8,-1.3c-.7,0,-1.1,.2,-1.2,.7l-.8,-.1c.2,-1.7,4,-1.8,3.6,.4c-.1,.7,-.2,1.4,-.3,2.1Zm-3.2,-.1c.1,1.3,2.1,.6,2.3,-.1c.2,-.4,.2,-.7,.3,-1c-1.2,0,-2.6,-.1,-2.6,1.1Z" class="g1"/>
<path d="M631.4,319.9c.3,1.3,2.6,.6,2.6,2.3c0,1.9,-3.7,2,-4,.4l.6,-.3c.2,1,2.6,1.1,2.6,-.1c-.3,-1.2,-2.6,-.6,-2.6,-2.2c0,-1.8,3.6,-1.8,3.8,-.2l-.8,.1c-.1,-.9,-2.1,-.9,-2.2,0Z" class="g1"/>
<path d="M635.9,319.9c.4,1.3,2.7,.6,2.7,2.3c0,1.9,-3.7,2,-4,.4l.6,-.3c.2,1,2.6,1.1,2.6,-.1c-.3,-1.2,-2.6,-.6,-2.6,-2.2c0,-1.8,3.6,-1.8,3.7,-.2l-.7,.1c-.1,-.9,-2.2,-.9,-2.3,0Z" class="g1"/>
<path d="M643.9,323.6H643l-.2,-4.2l-1.9,4.2H640l-.4,-4.9h.8l.2,4.2l1.9,-4.2h.8l.2,4.2l1.9,-4.2h.8Z" class="g1"/>
<path d="M646.5,319.8c.8,-1.6,4.2,-1.6,4,.7c-.1,1.8,-.8,3.1,-2.6,3.2c-2,.1,-2.2,-2.4,-1.4,-3.9Zm1.5,3.3c1.3,0,1.7,-1.3,1.7,-2.6c0,-.8,-.3,-1.3,-1.1,-1.2c-1.4,0,-1.8,1.1,-1.8,2.4c0,.8,.4,1.4,1.2,1.4Z" class="g1"/>
<path d="M652.5,319.7c.3,-.6,.7,-1.3,1.7,-1l-.2,.7c-2.1,-.3,-1.7,2.5,-2.2,4.2H651l.9,-4.9h.7Z" class="g1"/>
<path d="M657.2,322.9c-.7,1.3,-3.5,.9,-3,-1.3c.3,-1.6,.6,-2.9,2.3,-3c.7,0,1.1,.4,1.4,.9l.5,-2.6h.8l-1.3,6.7h-.8Zm-2.2,-1c-.1,.7,.2,1.1,.9,1.1c1.3,0,1.7,-1.2,1.7,-2.6c0,-.7,-.4,-1.1,-1,-1.1c-1.4,-.1,-1.5,1.4,-1.6,2.6Z" class="g1"/>
<path d="M665.6,322.4c-.1,.4,.1,.8,.6,.6v.6c-.8,.2,-1.6,0,-1.4,-.9c-.4,.5,-.8,1,-1.8,1c-.8,0,-1.4,-.5,-1.4,-1.4c0,-1.7,1.9,-1.7,3.6,-1.7c.2,-.6,0,-1.4,-.8,-1.3c-.7,0,-1.1,.2,-1.2,.7l-.8,-.1c.2,-1.7,4,-1.8,3.6,.4c-.1,.7,-.2,1.4,-.4,2.1Zm-3.1,-.1c.1,1.3,2,.6,2.3,-.1c.2,-.4,.2,-.7,.3,-1c-1.2,0,-2.7,-.1,-2.6,1.1Z" class="g1"/>
<path d="M668.2,319.6c.6,-1.3,3.4,-1.4,3,.7l-.6,3.3h-.9l.7,-3.6c.1,-1,-1.4,-.8,-1.8,-.3c-.7,.9,-.8,2.6,-1.1,3.9h-.8l.9,-4.9h.8Z" class="g1"/>
<path d="M675,322.9c-.8,1.3,-3.5,.9,-3,-1.3c.3,-1.6,.6,-2.9,2.2,-3c.8,0,1.2,.4,1.5,.9l.5,-2.6h.8l-1.3,6.7h-.8Zm-2.2,-1c-.1,.7,.2,1.1,.9,1.1c1.3,0,1.7,-1.2,1.7,-2.6c0,-.7,-.4,-1.1,-1,-1.1c-1.4,-.1,-1.5,1.4,-1.6,2.6Z" class="g1"/>
<path d="M681,323.7c-2.4,-.1,-.8,-3.3,-.7,-5h.8l-.6,3.6c-.1,1,1.3,.8,1.8,.3c.7,-.9,.7,-2.6,1,-3.9h.9l-1,4.9h-.7c0,-.3,.1,-.6,.1,-.9c-.4,.5,-.8,1,-1.6,1Z" class="g1"/>
<path d="M685.7,319.9c.4,1.3,2.7,.6,2.7,2.3c0,1.9,-3.7,2,-4,.4l.6,-.3c.2,1,2.6,1.1,2.6,-.1C687.3,321,685,321.6,685,320c0,-1.8,3.6,-1.8,3.7,-.2l-.7,.1c-.1,-.9,-2.2,-.9,-2.3,0Z" class="g1"/>
<path d="M691.7,318.6c1.6,0,2.2,1.2,1.9,2.7h-3.5c-.2,1,.1,1.8,1.1,1.8c.7,-.1,1.1,-.4,1.4,-.8l.6,.2c-.4,.7,-1,1.2,-2.1,1.2c-1.2,0,-1.9,-.7,-1.9,-1.9c0,-1.8,.8,-3.1,2.5,-3.2Zm1.2,2.1c.3,-1.7,-1.8,-1.8,-2.4,-.7c-.2,.2,-.3,.4,-.3,.7h2.7Z" class="g1"/>
<path d="M695.7,319.7c.3,-.6,.8,-1.3,1.7,-1l-.2,.7c-2,-.3,-1.7,2.5,-2.2,4.2h-.8l.9,-4.9h.7Z" class="g1"/>
<path d="M700,323.6l1.2,-6.3h.8l-1.2,6.3H700Z" class="g1"/>
<path d="M705.5,322.9c-.7,1.3,-3.5,.9,-3,-1.3c.3,-1.6,.6,-2.9,2.3,-3c.7,0,1.1,.4,1.4,.9l.5,-2.6h.8l-1.3,6.7h-.7Zm-2.2,-1c-.1,.7,.2,1.1,.9,1.1c1.4,0,1.7,-1.2,1.7,-2.6c0,-.7,-.3,-1.1,-1,-1.1c-1.4,-.1,-1.5,1.4,-1.6,2.6Z" class="g1"/>
<path d="M784.4,302.5c-6.1,0,-11,5,-11,11v33c0,6.1,4.9,11,11,11h88c6.2,0,11,-4.9,11,-11v-33c0,-6,-4.8,-11,-11,-11Z" class="g5"/>
<path d="M784.4,302.5c-6.1,0,-11,5,-11,11v33c0,6.1,4.9,11,11,11h88c6.2,0,11,-4.9,11,-11v-33c0,-6,-4.8,-11,-11,-11Z" class="g6"/>
<path d="M804,332.1l-.4,-2.1h-3.3l-1.3,2.1h-1.1l4.5,-7.3h1.1l1.5,7.3h-1Zm-.5,-2.9l-.7,-3.7l-2.1,3.7h2.8Z" class="g0"/>
<path d="M809.6,331.3c-.9,1.6,-4.1,1.1,-3.6,-1.4c.4,-1.9,.7,-3.5,2.7,-3.5c.8,-.1,1.3,.4,1.6,1l.6,-3h.9l-1.4,7.7h-.9Zm-2.7,-1.1c0,.8,.3,1.3,1.1,1.3c1.6,0,2,-1.5,2,-3c0,-.9,-.4,-1.4,-1.2,-1.4c-1.6,0,-1.7,1.7,-1.9,3.1Z" class="g0"/>
<path d="M818.9,328.8c.2,-.7,.3,-1.8,-.7,-1.7c-2.1,.3,-1.7,3.2,-2.3,5H815l.8,-4.2c.1,-1.1,-1.5,-.9,-1.9,-.3c-.8,1.1,-.9,3,-1.3,4.5h-.9l1.1,-5.6h.9c0,.3,-.2,.7,-.1,.9c.3,-1.2,3,-1.5,3.1,.2c.4,-.7,.8,-1.2,1.8,-1.2c2.7,0,.8,3.8,.7,5.7h-.9Z" class="g0"/>
<path d="M821.9,325.3l.2,-.9h.9l-.1,.9h-1Zm-1.3,6.8l1.1,-5.6h.9l-1.1,5.6h-.9Z" class="g0"/>
<path d="M824.8,327.4c.6,-1.4,3.9,-1.5,3.4,.9l-.7,3.8h-1l.8,-4.1c0,-1.1,-1.6,-1,-2.1,-.4c-.9,1.1,-.9,3,-1.3,4.5h-1l1.1,-5.6h.9Z" class="g0"/>
<path d="M839.1,328.8c.1,-.7,.2,-1.8,-.8,-1.7c-2.1,.3,-1.7,3.2,-2.2,5h-1l.8,-4.2c.1,-1.1,-1.5,-.9,-1.9,-.3c-.8,1.1,-.8,3,-1.2,4.5h-.9l1,-5.6h.9c0,.3,-.2,.7,-.1,.9c.4,-1.2,3,-1.5,3.1,.2c.4,-.7,.9,-1.2,1.8,-1.2c2.7,0,.9,3.8,.7,5.7h-.9Z" class="g0"/>
<path d="M843.9,326.4c1.8,-.1,2.5,1.4,2.1,3.1h-4.1c-.2,1.2,.2,2.1,1.3,2c.8,0,1.3,-.4,1.6,-.9l.7,.3c-.4,.8,-1.1,1.4,-2.3,1.4c-1.5,-.1,-2.3,-.8,-2.3,-2.3c0,-2,1,-3.5,3,-3.6Zm1.3,2.4c.4,-2,-2.1,-2.2,-2.8,-.8c-.2,.2,-.3,.5,-.4,.8h3.2Z" class="g0"/>
<path d="M848.5,327.4c.7,-1.4,3.9,-1.5,3.4,.9l-.7,3.8h-.9L851,328c.1,-1.1,-1.6,-1,-2.1,-.4c-.8,1.1,-.9,3,-1.3,4.5h-.9l1.1,-5.6h.8Z" class="g0"/>
<path d="M854.4,332.2c-2.7,0,-.9,-3.7,-.7,-5.7h.9l-.7,4.2c-.1,1.1,1.5,.9,2.1,.3c.8,-1,.8,-3,1.2,-4.5h1l-1.1,5.6h-.9c.1,-.3,.2,-.7,.1,-.9c-.4,.6,-.8,1.1,-1.9,1Z" class="g0"/>
<path d="M784.4,426.3c-6.1,0,-11,4.9,-11,11v33c0,6,4.9,11,11,11h88c6.2,0,11,-5,11,-11v-33c0,-6.1,-4.8,-11,-11,-11Z" class="g9"/>
<path d="M784.4,426.3c-6.1,0,-11,4.9,-11,11v33c0,6,4.9,11,11,11h88c6.2,0,11,-5,11,-11v-33c0,-6.1,-4.8,-11,-11,-11Z" class="g6"/>
<path d="M793.5,455.9v-7.4h1v7.4h-1Z" class="g1"/>
<path d="M798.9,450.1c2.7,-.1,1.6,3.5,1.8,5.8h-.9v-3.6c0,-.9,-.3,-1.5,-1.2,-1.4c-2.1,0,-1.3,3,-1.4,5h-1v-5.7h.9c0,.3,-.1,.8,0,1c.4,-.7,.9,-1,1.8,-1.1Z" class="g1"/>
<path d="M804.6,455.9h-1.1l-2.1,-5.7h1.1l1.6,4.9l1.6,-4.9h1Z" class="g1"/>
<path d="M809.7,450.1c1.9,0,2.6,1.3,2.5,3.2h-4c0,1.2,.4,2,1.6,2c.8,0,1.3,-.4,1.4,-.9l.9,.3c-.4,.8,-1.1,1.3,-2.3,1.3c-1.7,0,-2.6,-1.1,-2.6,-3c0,-1.8,.8,-2.9,2.5,-2.9Zm1.6,2.4c.2,-1.7,-2.3,-2.3,-2.9,-.8c-.1,.2,-.2,.5,-.2,.8h3.1Z" class="g1"/>
<path d="M816.2,450.1c2.6,-.1,1.5,3.5,1.8,5.8h-1v-3.6c0,-.9,-.2,-1.5,-1.2,-1.4c-2.1,0,-1.3,3,-1.4,5h-1v-5.7h.9c0,.3,0,.8,.1,1c.3,-.7,.8,-1,1.8,-1.1Z" class="g1"/>
<path d="M820.4,454.5c-.1,.7,.5,.9,1.1,.6v.8c-1,.3,-2.1,.1,-2.1,-1.2v-3.8h-.6v-.7h.7l.3,-1.2h.6v1.2h1v.7h-1v3.6Z" class="g1"/>
<path d="M824.6,450.1c1.8,0,2.5,1.1,2.5,3c0,1.8,-.8,2.9,-2.6,2.9c-1.7,0,-2.4,-1.2,-2.4,-2.9c0,-2,.8,-3,2.5,-3Zm-.1,5.2c1.4,0,1.6,-.9,1.6,-2.2c0,-1.3,-.2,-2.3,-1.5,-2.3c-1.3,0,-1.6,1,-1.6,2.3c0,1.2,.3,2.2,1.5,2.2Z" class="g1"/>
<path d="M830.9,451c-2.3,-.4,-1.5,2.7,-1.7,4.9h-.9v-5.7h.9c0,.4,-.1,.9,0,1.2c.2,-.8,.7,-1.5,1.7,-1.2v.8Z" class="g1"/>
<path d="M836.4,450.2l-2.6,6.6c-.4,.8,-1.1,1.5,-2.4,1.3v-.8c1.2,.2,1.6,-.6,1.9,-1.4l-2.2,-5.7h1l1.7,4.7l1.6,-4.7h1Z" class="g1"/>
<path d="M840.3,448.5c2.6,.1,5.7,-.4,5.7,2.3c0,2.3,-2.3,2.3,-4.7,2.2v2.9h-1v-7.4Zm1,3.7c1.7,0,3.7,.4,3.7,-1.4c0,-1.8,-2.1,-1.4,-3.7,-1.5v2.9Z" class="g1"/>
<path d="M850.7,454.8c-.4,.6,-.9,1.2,-2,1.2c-1.1,0,-1.7,-.6,-1.7,-1.7c0,-1.9,1.9,-1.9,3.7,-1.9c.1,-1,-.3,-1.6,-1.2,-1.6c-.7,.1,-1.2,.2,-1.3,1l-.9,-.1c.1,-1.1,.9,-1.6,2.2,-1.6c1.3,0,2.1,.6,2.1,1.9v2.5c0,.6,.3,.9,.9,.8v.6c-.9,.2,-1.8,-.1,-1.8,-1.1Zm-2.7,-.5c0,.6,.3,1,.9,1c1.2,-.1,1.9,-.9,1.8,-2.2c-1.3,.1,-2.7,-.2,-2.7,1.2Z" class="g1"/>
<path d="M857.7,450.2c-.3,3.8,1.3,8.7,-3.2,7.8c-.7,-.2,-1.2,-.6,-1.3,-1.3l.9,-.1c.5,1.4,3,.9,2.7,-.9v-.9c-.4,.7,-.9,1.1,-1.9,1.1c-1.6,0,-2,-1.2,-2,-2.8c0,-1.7,.5,-2.9,2.1,-2.9c.9,-.1,1.5,.4,1.8,1c0,-.3,0,-.7,0,-1h.9Zm-2.4,5c1,0,1.5,-.9,1.5,-2.1c0,-1.3,-.5,-2.3,-1.5,-2.3c-1.2,0,-1.4,1,-1.4,2.3c0,1.2,.2,2.1,1.4,2.1Z" class="g1"/>
<path d="M861.4,450.1c1.9,0,2.5,1.3,2.5,3.2h-4c0,1.2,.4,2,1.5,2c.8,0,1.3,-.4,1.5,-.9l.8,.3c-.3,.8,-1.1,1.3,-2.3,1.3c-1.7,0,-2.6,-1.1,-2.5,-3c0,-1.8,.7,-2.9,2.5,-2.9Zm1.5,2.4c.2,-1.7,-2.2,-2.3,-2.8,-.8c-.1,.2,-.2,.5,-.2,.8h3Z" class="g1"/>
<path d="M565.7,346.8H437.5v-.7H565.7Zm207.7,0H634.6v-.7H773.4Z" class="g1"/>
<path d="M773.4,346.5v.3v-.7Z" class="g1"/>
<path d="M437.2,349.6l-9.8,-3.2l9.8,-3.2Z" class="g1"/>
<path d="M437.5,350.1l-11.2,-3.7l11.2,-3.6Zm-9,-3.7l8.3,2.7v-5.4Z" class="g1"/>
<path d="M571.7,348.5l-.8,-2.1h-3.4l-.8,2.1h-1.1l3,-7.3h1.2l2.9,7.3h-1Zm-1.1,-2.9l-1.4,-3.7c-.4,1.4,-1,2.5,-1.4,3.7h2.8Z" class="g1"/>
<path d="M575.3,342.8c.9,0,1.4,.3,1.7,.9v-2.9h1v7.7h-.9c-.1,-.3,0,-.7,-.1,-.9c-.3,.7,-.8,1,-1.7,1c-1.6,0,-2.1,-1.1,-2.1,-2.9c0,-1.9,.7,-2.9,2.1,-2.9Zm.2,.7c-1.2,0,-1.3,1,-1.3,2.2c0,1.2,.1,2.2,1.3,2.2c1.2,0,1.5,-1,1.5,-2.3c0,-1.2,-.3,-2.2,-1.5,-2.1Z" class="g1"/>
<path d="M584.9,343.5c-2,.1,-1.1,3.1,-1.3,5h-.9v-3.6c0,-.8,-.2,-1.5,-1.1,-1.4c-1.9,.1,-1.1,3.1,-1.3,5h-.9v-5.6h.9c0,.3,-.1,.7,0,.9c.3,-1.3,3,-1.5,3.2,0c.3,-.6,.8,-1,1.7,-1c2.6,-.1,1.4,3.5,1.7,5.7H586v-3.6c0,-.8,-.2,-1.4,-1.1,-1.4Z" class="g1"/>
<path d="M588.3,341.7v-.9h.9v.9h-.9Zm0,6.8v-5.6h.9v5.6h-.9Z" class="g1"/>
<path d="M593.4,342.8c2.6,-.2,1.5,3.4,1.8,5.7h-1v-3.6c0,-.9,-.2,-1.4,-1.2,-1.4c-2.1,.1,-1.3,3,-1.4,5h-1v-5.6h.9c0,.3,0,.7,.1,.9c.3,-.6,.8,-1,1.8,-1Z" class="g1"/>
<path d="M599.7,348.5v-7.3h1v6.5h3.7v.8h-4.7Z" class="g1"/>
<path d="M607.7,342.8c1.9,-.1,2.5,1.1,2.5,2.9c.1,1.9,-.8,2.9,-2.5,2.9c-1.8,0,-2.5,-1.1,-2.5,-2.9c0,-2,.8,-2.9,2.5,-2.9Zm0,5.1c1.3,.1,1.6,-.9,1.6,-2.2c0,-1.3,-.3,-2.2,-1.5,-2.2c-1.3,0,-1.6,.9,-1.6,2.2c0,1.3,.3,2.2,1.5,2.2Z" class="g1"/>
<path d="M615.9,342.9c-.2,3.7,1.3,8.7,-3.2,7.7c-.7,-.1,-1.1,-.6,-1.3,-1.2l.9,-.2c.5,1.4,3,1,2.7,-.8v-.9c-.4,.6,-.9,1.1,-1.8,1.1c-1.6,0,-2.1,-1.3,-2.1,-2.9c0,-1.7,.5,-2.9,2.1,-2.9c.9,0,1.5,.5,1.8,1c0,-.3,0,-.7,.1,-.9h.8Zm-2.4,5c1.1,0,1.5,-1,1.5,-2.2c0,-1.2,-.4,-2.2,-1.5,-2.2c-1.2,0,-1.4,1,-1.4,2.2c0,1.2,.2,2.2,1.4,2.2Z" class="g1"/>
<path d="M622.6,342.8c1.8,-.1,2.5,1.1,2.5,2.9c0,1.9,-.8,2.9,-2.6,2.9c-1.7,0,-2.4,-1.1,-2.4,-2.9c0,-2,.8,-2.9,2.5,-2.9Zm-.1,5.1c1.4,.1,1.6,-.9,1.6,-2.2c0,-1.3,-.2,-2.2,-1.5,-2.2c-1.3,0,-1.6,.9,-1.6,2.2c0,1.3,.3,2.2,1.5,2.2Z" class="g1"/>
<path d="M628,348.6c-2.6,.2,-1.6,-3.4,-1.8,-5.7h1v3.5c0,1,.2,1.5,1.1,1.5c2.2,-.1,1.4,-3,1.5,-5h.9l.1,5.6h-.9c0,-.3,0,-.7,-.1,-1c-.3,.7,-.8,1.1,-1.8,1.1Z" class="g1"/>
<path d="M633.2,347.1c0,.7,.6,.9,1.2,.7v.7c-1,.3,-2.1,.1,-2.1,-1.2v-3.7h-.7v-.7h.8l.2,-1.3h.6v1.3h1.1v.7h-1.1v3.5Z" class="g1"/>
<path d="M829.1,383.6l-.7,2.2l-.6,2.1l-1.4,1.8L825,391l-2.1,.9l-2.7,.3H654.5l-2.1,.3l-1.8,.8l-1.7,1.3l-1.3,1.6l-.7,1.9l-.3,2V415h-.7V400.1l.3,-2.2l.9,-2l1.4,-1.8l1.7,-1.4l2.1,-.9l2.2,-.3H820.2l2.1,-.2l2,-.8l1.4,-1.3l1.4,-1.7l.7,-1.8l.6,-2.1v-2.4h.7Zm0,-15.3h-.7V357.8h.7Z" class="g1"/>
<path d="M829.1,357.8h-.7v-.3h.7Z" class="g1"/>
<path d="M646.3,425.2l-3.2,-9.9h6.3Z" class="g1"/>
<path d="M646.3,426.3L642.6,415h7.3Zm-2.7,-10.6l2.7,8.3l2.6,-8.3Z" class="g1"/>
<path d="M967.3,426.3c-6.2,0,-11,4.9,-11,11v33c0,6,4.8,11,11,11h88c6.2,0,11,-5,11,-11v-33c0,-6.1,-4.8,-11,-11,-11Z" class="g9"/>
<path d="M967.3,426.3c-6.2,0,-11,4.9,-11,11v33c0,6,4.8,11,11,11h88c6.2,0,11,-5,11,-11v-33c0,-6.1,-4.8,-11,-11,-11Z" class="g6"/>
<path d="M974,449.5h-1.1l-3,-7.4H971l2.4,6.5l2.5,-6.5H977Z" class="g1"/>
<path d="M980.4,448.4c-.4,.6,-.9,1.2,-2,1.2c-1.1,0,-1.7,-.6,-1.7,-1.7c-.1,-1.9,1.8,-1.9,3.7,-1.9c.1,-1,-.3,-1.6,-1.2,-1.6c-.8,0,-1.3,.2,-1.3,.9l-1,-.1c.2,-1,1,-1.5,2.3,-1.5c1.3,0,2.1,.6,2.1,1.9V448c0,.6,.2,1,.9,.8v.6c-1,.3,-1.9,0,-1.8,-1Zm-2.8,-.5c0,.6,.4,1,1,1c1.2,-.1,1.9,-.9,1.8,-2.2c-1.3,0,-2.8,-.2,-2.8,1.2Z" class="g1"/>
<path d="M982.9,449.5v-7.8h.9v7.8h-.9Z" class="g1"/>
<path d="M985.2,442.6v-.9h1v.9h-1Zm0,6.9v-5.7h1v5.7h-1Z" class="g1"/>
<path d="M989.4,443.7c.9,0,1.4,.4,1.7,1v-3h1v7.8h-.9c-.1,-.3,0,-.7,-.1,-1c-.3,.7,-.8,1.1,-1.7,1.1c-1.6,0,-2.1,-1.2,-2.1,-2.9c0,-2,.7,-3,2.1,-3Zm.2,.7c-1.2,0,-1.3,1,-1.3,2.2c0,1.2,.1,2.2,1.3,2.2c1.3,0,1.5,-.9,1.5,-2.2c0,-1.3,-.2,-2.2,-1.5,-2.2Z" class="g1"/>
<path d="M997,448.4c-.5,.6,-1,1.2,-2,1.2c-1.1,0,-1.8,-.6,-1.8,-1.7c0,-1.9,1.9,-1.9,3.7,-1.9c.1,-1,-.2,-1.6,-1.2,-1.6c-.7,0,-1.2,.2,-1.2,.9l-1,-.1c.1,-1,1,-1.5,2.3,-1.5c1.3,0,2.1,.6,2.1,1.9V448c0,.6,.2,1,.8,.8v.6c-.9,.3,-1.8,0,-1.7,-1Zm-2.8,-.5c0,.6,.4,1,1,1c1.2,-.1,1.8,-.9,1.7,-2.2c-1.2,0,-2.7,-.2,-2.7,1.2Z" class="g1"/>
<path d="M1000.5,448.1c-.1,.7,.5,.8,1.1,.6v.7c-1,.3,-2.1,.2,-2.1,-1.1v-3.8h-.6v-.7h.7l.3,-1.3h.6v1.3h1v.7h-1v3.6Z" class="g1"/>
<path d="M1004.7,443.7c1.8,0,2.5,1.3,2.5,3.2h-4.1c0,1.1,.5,1.9,1.6,2c.8,0,1.3,-.4,1.5,-.9l.8,.2c-.3,.9,-1.1,1.4,-2.3,1.4c-1.7,0,-2.6,-1.1,-2.6,-3c.1,-1.8,.8,-2.9,2.6,-2.9Zm1.5,2.4c.2,-1.8,-2.3,-2.3,-2.9,-.8c-.1,.2,-.2,.5,-.2,.8h3.1Z" class="g1"/>
<path d="M1016.1,443.9c-.1,-1.5,-3.6,-1.7,-3.7,0c.4,2.2,4.7,.4,4.9,3.5c.1,2.4,-3.6,2.6,-5.2,1.7c-.5,-.3,-.9,-.8,-1,-1.4l1,-.2c.1,1.7,4.2,1.9,4.2,0c0,-2.3,-4.6,-.4,-4.9,-3.5c-.1,-2.5,4.3,-2.5,5.4,-1c.1,.2,.2,.4,.3,.7Z" class="g1"/>
<path d="M1020.7,443.7c1.9,0,2.5,1.1,2.5,2.9c.1,1.9,-.8,3,-2.5,3c-1.8,0,-2.5,-1.2,-2.5,-3c0,-1.9,.8,-2.9,2.5,-2.9Zm0,5.2c1.3,0,1.6,-.9,1.6,-2.3c0,-1.2,-.3,-2.2,-1.6,-2.2c-1.2,0,-1.5,1,-1.5,2.2c0,1.3,.3,2.2,1.5,2.3Z" class="g1"/>
<path d="M1026.7,442.5c-.9,-.3,-1.3,.3,-1.1,1.3h1.1v.7h-1.1v5h-1v-5h-.8v-.7h.8c-.2,-1.5,.5,-2.4,2.1,-2v.7Z" class="g1"/>
<path d="M1028.4,448.1c-.1,.7,.5,.8,1.1,.6v.7c-.9,.3,-2,.2,-2,-1.1v-3.8h-.7v-.7h.7l.3,-1.3h.6v1.3h1v.7h-1v3.6Z" class="g1"/>
<path d="M1035.7,449.5h-1l-1.2,-4.9l-1.2,4.9h-1.1l-1.6,-5.7h.9l1.2,4.9l1.3,-4.9h1l1.2,4.9l1.3,-4.9h.9Z" class="g1"/>
<path d="M1041.5,448.4c-.4,.6,-.9,1.2,-2,1.2c-1.1,0,-1.7,-.6,-1.7,-1.7c-.1,-1.9,1.8,-1.9,3.7,-1.9c.1,-1,-.3,-1.6,-1.2,-1.6c-.8,0,-1.3,.2,-1.3,.9l-1,-.1c.2,-1,1,-1.5,2.3,-1.5c1.3,0,2.1,.6,2.1,1.9V448c0,.6,.2,1,.9,.8v.6c-1,.3,-1.9,0,-1.8,-1Zm-2.8,-.5c0,.6,.4,1,1,1c1.2,-.1,1.9,-.9,1.8,-2.2c-1.3,0,-2.8,-.2,-2.8,1.2Z" class="g1"/>
<path d="M1046.6,444.6c-2.3,-.4,-1.5,2.7,-1.7,4.9h-.9v-5.7h.9c0,.4,-.1,.9,0,1.2c.2,-.8,.7,-1.5,1.7,-1.2v.8Z" class="g1"/>
<path d="M1049.8,443.7c1.8,0,2.5,1.3,2.5,3.2h-4.1c0,1.1,.5,1.9,1.6,2c.8,0,1.3,-.4,1.5,-.9l.8,.2c-.3,.9,-1.1,1.4,-2.3,1.4c-1.7,0,-2.6,-1.1,-2.6,-3c.1,-1.8,.8,-2.9,2.6,-2.9Zm1.5,2.4c.2,-1.8,-2.3,-2.3,-2.9,-.8c-.1,.2,-.2,.5,-.2,.8h3.1Z" class="g1"/>
<path d="M1002.8,456.5c1.7,.1,2.1,1.3,2.1,3c0,1.6,-.5,2.9,-2.1,2.9c-.9,0,-1.4,-.4,-1.7,-1v3.1h-1v-7.8h.9l.1,.9c.3,-.7,.8,-1.1,1.7,-1.1Zm-.2,5.2c1.2,0,1.3,-1,1.3,-2.2c0,-1.2,-.1,-2.2,-1.3,-2.2c-1.2,0,-1.5,.9,-1.5,2.2c0,1.3,.3,2.2,1.5,2.2Z" class="g1"/>
<path d="M1009.6,461.2c-.5,.7,-1,1.3,-2.1,1.2c-1,0,-1.7,-.6,-1.7,-1.7c0,-1.9,1.9,-1.8,3.7,-1.8c.1,-1.1,-.2,-1.6,-1.2,-1.6c-.7,0,-1.2,.2,-1.2,.9l-1,-.1c.1,-1.1,1,-1.6,2.2,-1.6c1.4,0,2.2,.6,2.2,1.9v2.5c-.1,.6,.2,.9,.8,.8v.6c-.9,.2,-1.8,-.1,-1.7,-1.1Zm-2.8,-.5c0,.6,.3,1,.9,1c1.3,-.1,1.9,-.9,1.8,-2.2c-1.3,.1,-2.7,-.1,-2.7,1.2Z" class="g1"/>
<path d="M1016.6,456.7c-.3,3.7,1.2,8.7,-3.3,7.7c-.7,-.2,-1.1,-.6,-1.3,-1.3l.9,-.1c.5,1.4,3,.9,2.7,-.8v-.9c-.3,.6,-.9,1,-1.8,1c-1.6,0,-2,-1.2,-2,-2.8c0,-1.7,.4,-2.9,2.1,-2.9c.8,-.1,1.4,.4,1.7,1c0,-.3,0,-.7,.1,-.9h.9Zm-2.5,4.9c1.1,0,1.5,-.9,1.5,-2.1c0,-1.3,-.4,-2.2,-1.5,-2.2c-1.2,0,-1.4,1,-1.4,2.2c0,1.2,.2,2.1,1.4,2.1Z" class="g1"/>
<path d="M1020.2,456.5c1.9,0,2.6,1.3,2.5,3.2h-4c0,1.2,.4,2,1.6,2c.7,0,1.3,-.3,1.4,-.9l.9,.3c-.4,.8,-1.1,1.3,-2.3,1.3c-1.7,0,-2.6,-1.1,-2.6,-2.9c0,-1.9,.8,-3,2.5,-3Zm1.6,2.4c.1,-1.7,-2.3,-2.2,-2.9,-.8c-.1,.2,-.2,.5,-.2,.8h3.1Z" class="g1"/>
<path d="M602.3,426.3c-6.1,0,-11,4.9,-11,11v33c0,6,4.9,11,11,11h88c5.5,0,11,-5,11,-11v-33c0,-6.1,-5.5,-11,-11,-11Z" class="g9"/>
<path d="M602.3,426.3c-6.1,0,-11,4.9,-11,11v33c0,6,4.9,11,11,11h88c5.5,0,11,-5,11,-11v-33c0,-6.1,-5.5,-11,-11,-11Z" class="g6"/>
<path d="M617.2,455.9v-6.5c-.6,2.3,-1.6,4.3,-2.3,6.5h-.7l-2.4,-6.5v6.5h-.9v-7.4h1.3l2.3,6.3c.7,-2.2,1.5,-4.2,2.3,-6.3h1.3v7.4h-.9Z" class="g1"/>
<path d="M621.9,450.1c1.9,0,2.6,1.3,2.5,3.2h-4c0,1.2,.4,2,1.6,2c.7,0,1.2,-.4,1.4,-.9l.8,.3c-.3,.8,-1.1,1.3,-2.2,1.3c-1.8,0,-2.7,-1.1,-2.6,-3c0,-1.8,.7,-2.9,2.5,-2.9Zm1.5,2.4c.2,-1.7,-2.2,-2.3,-2.8,-.8c-.1,.2,-.2,.5,-.2,.8h3Z" class="g1"/>
<path d="M631.1,450.9c-2,.1,-1.1,3.1,-1.3,5h-.9v-3.6c0,-.9,-.2,-1.5,-1.1,-1.4c-1.9,.1,-1.1,3.1,-1.3,5h-.9v-5.7h.9c0,.3,-.1,.8,0,1c.3,-1.3,3,-1.5,3.2,0c.3,-.6,.8,-1,1.7,-1.1c2.6,0,1.4,3.6,1.7,5.8h-1v-3.6c0,-.9,-.1,-1.5,-1,-1.4Z" class="g1"/>
<path d="M637.2,450.1c1.5,0,2,1.2,2,2.9c0,2,-.6,3,-2,3c-1,0,-1.5,-.3,-1.8,-1v.9h-1l.1,-7.8h.9v3c.3,-.6,.8,-1,1.8,-1Zm-.3,5.2c1.2,0,1.4,-1,1.4,-2.2c0,-1.2,-.2,-2.3,-1.4,-2.2c-1.2,0,-1.5,.9,-1.5,2.2c0,1.3,.3,2.2,1.5,2.2Z" class="g1"/>
<path d="M642.7,450.1c1.8,0,2.5,1.3,2.5,3.2h-4.1c0,1.2,.5,2,1.6,2c.8,0,1.3,-.4,1.5,-.9l.8,.3c-.3,.8,-1.1,1.3,-2.3,1.3c-1.7,0,-2.6,-1.1,-2.6,-3c.1,-1.8,.8,-2.9,2.6,-2.9Zm1.5,2.4c.2,-1.7,-2.3,-2.3,-2.9,-.8c-.1,.2,-.2,.5,-.2,.8h3.1Z" class="g1"/>
<path d="M649,451c-2.3,-.4,-1.6,2.7,-1.7,4.9h-.9l-.1,-5.7h.9c.1,.4,0,.9,.1,1.2c.2,-.8,.7,-1.5,1.7,-1.2v.8Z" class="g1"/>
<path d="M653.2,451.6c-.1,-1,-2.6,-1.1,-2.6,0c.4,1.6,3.4,.4,3.5,2.7c.1,2.3,-4.4,2.2,-4.6,.3l.8,-.2c.1,1.1,2.9,1.3,2.9,0c-.3,-1.7,-3.4,-.4,-3.5,-2.7c-.1,-1.7,2.4,-1.8,3.6,-1.2c.4,.2,.6,.5,.7,1Z" class="g1"/>
<path d="M658.4,448.5c2.6,.1,5.7,-.4,5.7,2.3c0,2.3,-2.3,2.3,-4.7,2.2v2.9h-1v-7.4Zm1,3.7c1.7,0,3.6,.4,3.6,-1.4c0,-1.8,-2,-1.4,-3.6,-1.5v2.9Z" class="g1"/>
<path d="M668.8,454.8c-.4,.6,-.9,1.2,-2,1.2c-1.1,0,-1.7,-.6,-1.7,-1.7c-.1,-1.9,1.8,-1.9,3.7,-1.9c.1,-1,-.3,-1.6,-1.2,-1.6c-.8,.1,-1.3,.2,-1.3,1l-1,-.1c.2,-1.1,1,-1.6,2.3,-1.6c1.3,0,2.1,.6,2.1,1.9v2.5c0,.6,.2,.9,.9,.8v.6c-1,.2,-1.9,-.1,-1.8,-1.1Zm-2.8,-.5c0,.6,.4,1,1,1c1.2,-.1,1.9,-.9,1.8,-2.2c-1.3,.1,-2.8,-.2,-2.8,1.2Z" class="g1"/>
<path d="M675.8,450.2c-.3,3.8,1.2,8.7,-3.3,7.8c-.6,-.2,-1.1,-.6,-1.3,-1.3l1,-.1c.4,1.4,3,.9,2.6,-.9v-.9c-.3,.7,-.8,1.1,-1.8,1.1c-1.6,0,-2,-1.2,-2,-2.8c0,-1.7,.5,-2.9,2.1,-2.9c.9,-.1,1.4,.4,1.8,1c0,-.3,0,-.7,0,-1h.9Zm-2.4,5c1,0,1.4,-.9,1.4,-2.1c0,-1.3,-.4,-2.3,-1.4,-2.3c-1.2,0,-1.4,1,-1.4,2.3c0,1.2,.2,2.1,1.4,2.1Z" class="g1"/>
<path d="M679.5,450.1c1.8,0,2.5,1.3,2.5,3.2h-4c0,1.2,.4,2,1.5,2c.8,0,1.3,-.4,1.5,-.9l.8,.3c-.3,.8,-1.1,1.3,-2.3,1.3c-1.7,0,-2.6,-1.1,-2.6,-3c.1,-1.8,.8,-2.9,2.6,-2.9Zm1.5,2.4c.2,-1.7,-2.2,-2.3,-2.9,-.8c-.1,.2,-.1,.5,-.1,.8h3Z" class="g1"/>
<path d="M454.1,330.3H426.6v-.6h26.8V275.3H371.6v15.9h-.7V274.7h83.2Z" class="g1"/>
<path d="M426.6,330.3h-.3v-.6h.3Z" class="g1"/>
<path d="M371.3,301.4l-3.2,-9.8h6.3Z" class="g1"/>
<path d="M371.3,302.5l-3.7,-11.3h7.3Zm-2.7,-10.6l2.7,8.4l2.6,-8.4Z" class="g1"/>
<path d="M1012,415h-.7v-6.5h.7ZM829.1,391.5H1012v4.2h-.7v-3.5H828.4v-11h.7Zm0,-23.2h-.7V357.8h.7Z" class="g1"/>
<path d="M829.1,357.8h-.7v-.3h.7Z" class="g1"/>
<path d="M1011.3,425.2l-3.4,-9.9h6.9Z" class="g1"/>
<path d="M1011.3,426.3L1007.9,415h6.9Zm-2.7,-10.6l2.7,8.3l2.8,-8.3Z" class="g1"/>
<path d="M934.2,404.1l-.8,-2.1H930l-.8,2.1h-1l3,-7.3h1.1l2.9,7.3h-1Zm-1.1,-2.9l-1.4,-3.7c-.4,1.4,-.9,2.5,-1.4,3.7h2.8Z" class="g1"/>
<path d="M937.8,398.4c.9,0,1.4,.4,1.8,1l-.1,-3h1v7.7h-.9c0,-.3,0,-.6,-.1,-.9c-.3,.7,-.8,1.1,-1.7,1.1c-1.6,0,-2.1,-1.2,-2.1,-3c0,-1.9,.7,-2.9,2.1,-2.9Zm.2,.7c-1.1,0,-1.3,1,-1.3,2.2c0,1.2,.2,2.2,1.3,2.2c1.3,0,1.5,-.9,1.5,-2.2c0,-1.3,-.2,-2.2,-1.5,-2.2Z" class="g1"/>
<path d="M943.7,398.4c.9,0,1.4,.4,1.8,1v-3h.9v7.7h-.8c-.1,-.3,0,-.6,-.1,-.9c-.3,.7,-.9,1.1,-1.8,1.1c-1.6,0,-2,-1.2,-2.1,-3c0,-1.9,.7,-2.9,2.1,-2.9Zm.3,.7c-1.2,0,-1.4,1,-1.4,2.2c0,1.2,.2,2.2,1.4,2.2c1.2,0,1.5,-.9,1.5,-2.2c0,-1.3,-.3,-2.2,-1.5,-2.2Z" class="g1"/>
<path d="M956.3,399.1c-1.9,.1,-1.1,3.1,-1.3,5h-.9v-3.6c0,-.8,-.1,-1.4,-1,-1.4c-2,.1,-1.2,3.1,-1.3,5h-1v-5.6h.9c0,.3,0,.7,.1,.9c.3,-1.3,2.9,-1.4,3.1,0c.4,-.6,.8,-1,1.8,-1c2.5,-.1,1.4,3.5,1.6,5.7h-.9v-3.6c0,-.8,-.2,-1.4,-1.1,-1.4Z" class="g1"/>
<path d="M962,398.4c1.8,0,2.5,1.2,2.4,3.1h-4c0,1.2,.5,2,1.6,2c.8,.1,1.3,-.3,1.5,-.8l.8,.2c-.3,.9,-1.1,1.4,-2.3,1.4c-1.7,0,-2.6,-1.1,-2.6,-3c.1,-1.8,.8,-2.9,2.6,-2.9Zm1.5,2.4c.2,-1.8,-2.3,-2.3,-2.9,-.8c-.1,.2,-.2,.5,-.2,.8h3.1Z" class="g1"/>
<path d="M971.2,399.1c-2,.1,-1.2,3.1,-1.3,5h-1v-3.6c0,-.8,-.1,-1.4,-1,-1.4c-2,.1,-1.1,3.1,-1.3,5h-.9l-.1,-5.6h.9c.1,.3,0,.7,.1,.9c.3,-1.3,2.9,-1.4,3.2,0c.3,-.6,.8,-1,1.7,-1c2.5,-.1,1.4,3.5,1.6,5.7h-.9v-3.6c0,-.8,-.1,-1.4,-1,-1.4Z" class="g1"/>
<path d="M977.2,398.4c1.6,0,2.1,1.1,2.1,2.9c0,1.9,-.7,3,-2.1,3c-.9,-.1,-1.4,-.4,-1.7,-1.1l-.1,.9h-.9v-7.7h1v3c.3,-.7,.8,-1,1.7,-1Zm-.2,5.1c1.2,0,1.3,-1,1.3,-2.2c0,-1.2,-.1,-2.2,-1.3,-2.2c-1.3,0,-1.5,1,-1.5,2.3c0,1.3,.3,2.1,1.5,2.1Z" class="g1"/>
<path d="M982.7,398.4c1.9,0,2.6,1.2,2.5,3.1h-4c0,1.2,.4,2,1.6,2c.7,.1,1.3,-.3,1.4,-.8l.9,.2c-.4,.9,-1.1,1.4,-2.3,1.4c-1.7,0,-2.6,-1.1,-2.6,-3c0,-1.8,.8,-2.9,2.5,-2.9Zm1.6,2.4c.1,-1.8,-2.3,-2.3,-2.9,-.8c-.1,.2,-.2,.5,-.2,.8h3.1Z" class="g1"/>
<path d="M989.1,399.3c-2.3,-.5,-1.6,2.7,-1.7,4.8h-1v-5.6h.9c0,.4,0,.9,0,1.2c.2,-.8,.7,-1.5,1.8,-1.3v.9Z" class="g1"/>
<path d="M996.4,403.1c-.5,.6,-.9,1.2,-2,1.2c-1.1,-.1,-1.8,-.7,-1.8,-1.7c0,-1.9,1.9,-1.9,3.8,-1.9c0,-1,-.3,-1.6,-1.3,-1.6c-.7,0,-1.2,.2,-1.2,.9l-1,-.1c.2,-1.1,1,-1.5,2.3,-1.5c1.3,0,2.1,.6,2.1,1.9v2.4c0,.6,.2,1,.8,.8v.6c-.9,.3,-1.8,0,-1.7,-1Zm-2.8,-.5c0,.6,.4,.9,1,.9c1.2,0,1.8,-.8,1.8,-2.2c-1.3,.1,-2.8,-.1,-2.8,1.3Z" class="g1"/>
<path d="M1001.6,398.4c2.7,-.1,1.6,3.4,1.8,5.7h-1v-3.6c0,-.9,-.2,-1.4,-1.1,-1.4c-2.2,.1,-1.3,3.1,-1.5,5h-.9v-5.6h.8c.1,.3,0,.7,.1,.9c.3,-.6,.9,-1,1.8,-1Z" class="g1"/>
<path d="M1006.6,398.4c.9,0,1.4,.4,1.8,1v-3h.9v7.7h-.9c0,-.3,0,-.6,0,-.9c-.3,.7,-.9,1.1,-1.8,1.1c-1.6,0,-2,-1.2,-2.1,-3c0,-1.9,.7,-2.9,2.1,-2.9Zm.3,.7c-1.2,0,-1.4,1,-1.4,2.2c0,1.2,.2,2.2,1.3,2.2c1.3,0,1.6,-.9,1.6,-2.2c0,-1.3,-.3,-2.2,-1.5,-2.2Z" class="g1"/>
<path d="M1019.2,399.1c-2,.1,-1.1,3.1,-1.3,5h-.9v-3.6c0,-.8,-.2,-1.4,-1.1,-1.4c-1.9,.1,-1.1,3.1,-1.3,5h-.9v-5.6h.9c0,.3,-.1,.7,0,.9c.3,-1.3,3,-1.4,3.2,0c.3,-.6,.8,-1,1.7,-1c2.6,-.1,1.4,3.5,1.7,5.7h-1v-3.6c0,-.8,-.1,-1.4,-1,-1.4Z" class="g1"/>
<path d="M1026,403.1c-.4,.6,-.9,1.2,-2,1.2c-1.1,-.1,-1.7,-.7,-1.7,-1.7c0,-1.9,1.9,-1.9,3.7,-1.9c.1,-1,-.3,-1.6,-1.2,-1.6c-.7,0,-1.2,.2,-1.3,.9l-.9,-.1c.1,-1.1,.9,-1.5,2.2,-1.5c1.3,0,2.2,.6,2.2,1.9v2.4c-.1,.6,.2,1,.8,.8v.6c-.9,.3,-1.8,0,-1.8,-1Zm-2.7,-.5c0,.6,.3,.9,.9,.9c1.2,0,1.9,-.8,1.8,-2.2c-1.3,.1,-2.7,-.1,-2.7,1.3Z" class="g1"/>
<path d="M1032,404.1l-1.9,-2.5l-.7,.5v2h-.9v-7.7h.9v4.8l2.5,-2.7h1.1l-2.3,2.4l2.5,3.2H1032Z" class="g1"/>
<path d="M1036.1,398.4c1.9,0,2.6,1.2,2.5,3.1h-4c0,1.2,.4,2,1.6,2c.7,.1,1.2,-.3,1.4,-.8l.8,.2c-.3,.9,-1.1,1.4,-2.2,1.4c-1.8,0,-2.7,-1.1,-2.6,-3c0,-1.8,.7,-2.9,2.5,-2.9Zm1.5,2.4c.2,-1.8,-2.2,-2.3,-2.8,-.8c-.1,.2,-.2,.5,-.2,.8h3Z" class="g1"/>
<path d="M1046.2,403.1c-.4,.6,-.9,1.2,-2,1.2c-1.1,-.1,-1.7,-.7,-1.7,-1.7c0,-1.9,1.9,-1.9,3.7,-1.9c.1,-1,-.3,-1.6,-1.2,-1.6c-.7,0,-1.2,.2,-1.3,.9l-.9,-.1c.1,-1.1,.9,-1.5,2.2,-1.5c1.4,0,2.2,.6,2.2,1.9v2.4c-.1,.6,.2,1,.8,.8v.6c-.9,.3,-1.8,0,-1.8,-1Zm-2.7,-.5c0,.6,.3,.9,.9,.9c1.2,0,1.9,-.8,1.8,-2.2c-1.3,.1,-2.7,-.1,-2.7,1.3Z" class="g1"/>
<path d="M1054.4,398.4c1.6,0,2.1,1.2,2.1,2.9c0,1.7,-.5,2.9,-2.1,3c-.9,0,-1.5,-.4,-1.8,-1.1v3.2h-.9v-7.9h.9v.9c.3,-.6,.9,-1,1.8,-1Zm-.2,5.1c1.1,0,1.3,-1,1.3,-2.2c0,-1.2,-.2,-2.1,-1.3,-2.2c-1.3,0,-1.6,1,-1.6,2.3c0,1.3,.3,2.1,1.6,2.1Z" class="g1"/>
<path d="M1059.4,404.3c-2.6,.1,-1.6,-3.5,-1.8,-5.8h1v3.6c0,.9,.2,1.4,1.1,1.4c2.2,0,1.3,-3,1.5,-5h.9v5.6h-.8c-.1,-.3,0,-.7,-.1,-.9c-.3,.6,-.8,1,-1.8,1.1Z" class="g1"/>
<path d="M1066.2,399.3c-2.3,-.5,-1.5,2.7,-1.6,4.8h-1v-5.6h.9c0,.4,-.1,.9,0,1.2c.2,-.8,.7,-1.5,1.7,-1.3v.9Z" class="g1"/>
<path d="M1069.2,399.1c-1.1,0,-1.4,1,-1.4,2.2c0,1.2,.3,2.2,1.4,2.2c.8,0,1.3,-.4,1.3,-1.1h1c-.2,1.1,-.9,1.9,-2.2,1.9c-1.8,0,-2.3,-1.3,-2.5,-3c-.3,-2.7,3,-3.9,4.4,-1.9c.1,.2,.2,.4,.2,.7l-.9,.1c-.2,-.7,-.5,-1.1,-1.3,-1.1Z" class="g1"/>
<path d="M1074.9,399.1c-2.1,0,-1.3,3.1,-1.5,5h-.9v-7.7h.9v3c.4,-.6,.8,-1,1.8,-1c2.7,0,1.6,3.4,1.8,5.7h-1v-3.6c.1,-.9,-.2,-1.4,-1.1,-1.4Z" class="g1"/>
<path d="M1081.9,403.1c-.5,.6,-1,1.2,-2.1,1.2c-1,-.1,-1.7,-.7,-1.7,-1.7c0,-1.9,1.9,-1.9,3.7,-1.9c.1,-1,-.2,-1.6,-1.2,-1.6c-.7,0,-1.2,.2,-1.2,.9l-1,-.1c.1,-1.1,1,-1.5,2.3,-1.5c1.3,0,2.1,.6,2.1,1.9v2.4c0,.6,.2,1,.8,.8v.6c-.9,.3,-1.8,0,-1.7,-1Zm-2.8,-.5c0,.6,.4,.9,1,.9c1.2,0,1.8,-.8,1.7,-2.2c-1.2,.1,-2.7,-.1,-2.7,1.3Z" class="g1"/>
<path d="M1087.6,399.9c-.1,-1,-2.5,-1.1,-2.6,0c.5,1.6,3.5,.3,3.6,2.7c.1,2.3,-4.5,2.2,-4.7,.2l.9,-.1c.1,1,2.8,1.3,2.9,0c-.3,-1.7,-3.4,-.5,-3.5,-2.7c-.2,-1.7,2.4,-1.9,3.6,-1.3c.3,.2,.6,.6,.7,1.1Z" class="g1"/>
<path d="M1091.9,398.4c1.9,0,2.6,1.2,2.5,3.1h-4c0,1.2,.4,2,1.6,2c.8,.1,1.3,-.3,1.5,-.8l.8,.2c-.3,.9,-1.1,1.4,-2.3,1.4c-1.7,0,-2.6,-1.1,-2.6,-3c0,-1.8,.8,-2.9,2.5,-2.9Zm1.6,2.4c.2,-1.8,-2.3,-2.3,-2.9,-.8c-.1,.2,-.2,.5,-.2,.8h3.1Z" class="g1"/>
<path d="M829.1,415h-.7v-4.7h.7Zm0,-17.5h-.7V381.2h.7Zm0,-29.2h-.7V357.8h.7Z" class="g1"/>
<path d="M829.1,357.8h-.7v-.3h.7Z" class="g1"/>
<path d="M828.4,425.2l-2.7,-9.9h6.2Z" class="g1"/>
<path d="M828.4,426.3L825,415h7.6Zm-2.7,-10.6l2.7,8.3l2.8,-8.3Z" class="g1"/>
<path d="M736.3,374c0,1.9,-1.2,2.9,-3.1,2.9c-1.8,0,-2.9,-1,-2.9,-2.8v-4.7h.9c.3,2.7,-.9,6.7,2,6.7c3.1,0,1.9,-4,2.1,-6.7h1V374Z" class="g1"/>
<path d="M741.1,372.5c0,-1,-2.5,-1.1,-2.5,0c.4,1.6,3.4,.4,3.5,2.7c.1,2.3,-4.5,2.2,-4.7,.2l.9,-.1c.1,1.1,2.8,1.3,2.9,0c-.3,-1.7,-3.4,-.5,-3.5,-2.7c-.2,-1.7,2.4,-1.9,3.6,-1.2c.3,.2,.6,.5,.7,1Z" class="g1"/>
<path d="M745.4,371c1.9,0,2.6,1.3,2.5,3.2h-4c0,1.2,.4,2,1.6,2c.8,0,1.3,-.4,1.5,-.9l.8,.3c-.3,.8,-1.1,1.3,-2.3,1.3c-1.7,0,-2.6,-1.1,-2.6,-3c.1,-1.8,.8,-2.9,2.5,-2.9Zm1.6,2.4c.2,-1.8,-2.3,-2.3,-2.9,-.8c-.1,.2,-.2,.5,-.2,.8H747Z" class="g1"/>
<path d="M751.8,371.9c-2.3,-.4,-1.6,2.7,-1.7,4.9h-.9l-.1,-5.7h.9c0,.4,0,.9,.1,1.2c.2,-.8,.7,-1.5,1.7,-1.2v.8Z" class="g1"/>
<path d="M757.8,371.8c-1.2,0,-1.5,.9,-1.5,2.1c0,1.2,.3,2.3,1.5,2.3c.7,0,1.2,-.5,1.3,-1.2l.9,.1c-.2,1.1,-.9,1.8,-2.2,1.8c-1.7,0,-2.3,-1.2,-2.4,-2.9c-.3,-2.8,3,-3.9,4.3,-1.9c.2,.2,.2,.4,.2,.6l-.9,.1c-.1,-.6,-.5,-1,-1.2,-1Z" class="g1"/>
<path d="M763.4,371.8c-2.1,0,-1.3,3,-1.4,5h-1V369h1l-.1,3.1c.4,-.6,.9,-1.1,1.8,-1.1c2.7,0,1.6,3.5,1.8,5.8h-.9v-3.6c0,-1,-.3,-1.5,-1.2,-1.4Z" class="g1"/>
<path d="M769.2,371c1.8,0,2.5,1.1,2.5,3c0,1.8,-.8,2.9,-2.6,2.9c-1.7,0,-2.4,-1.2,-2.4,-2.9c0,-2,.8,-3,2.5,-3Zm-.1,5.2c1.4,0,1.6,-.9,1.6,-2.2c0,-1.3,-.2,-2.3,-1.5,-2.3c-1.3,0,-1.6,1,-1.6,2.3c0,1.2,.3,2.2,1.5,2.2Z" class="g1"/>
<path d="M775.1,371c1.9,0,2.5,1.1,2.5,3c.1,1.8,-.8,2.9,-2.5,2.9c-1.8,0,-2.5,-1.2,-2.5,-2.9c0,-2,.8,-3,2.5,-3Zm0,5.2c1.3,0,1.6,-.9,1.6,-2.2c0,-1.3,-.3,-2.3,-1.6,-2.3c-1.2,0,-1.5,1,-1.5,2.3c0,1.2,.3,2.2,1.5,2.2Z" class="g1"/>
<path d="M782.1,372.5c-.1,-1,-2.6,-1.1,-2.6,0c.5,1.6,3.4,.4,3.5,2.7c.2,2.3,-4.4,2.2,-4.6,.2l.8,-.1c.1,1.1,2.9,1.3,2.9,0c-.3,-1.7,-3.3,-.5,-3.5,-2.7c-.1,-1.7,2.5,-1.9,3.6,-1.2c.4,.2,.7,.5,.8,1Z" class="g1"/>
<path d="M786.4,371c1.9,0,2.6,1.3,2.5,3.2h-4c0,1.2,.4,2,1.6,2c.7,0,1.2,-.4,1.4,-.9l.9,.3c-.4,.8,-1.1,1.3,-2.3,1.3c-1.8,0,-2.6,-1.1,-2.6,-3c0,-1.8,.8,-2.9,2.5,-2.9Zm1.5,2.4c.2,-1.8,-2.2,-2.3,-2.8,-.8c-.1,.2,-.2,.5,-.2,.8h3Z" class="g1"/>
<path d="M793.4,372.5c-.1,-1,-2.6,-1.1,-2.6,0c.4,1.6,3.4,.4,3.5,2.7c.2,2.3,-4.4,2.2,-4.6,.2l.8,-.1c.1,1.1,2.9,1.3,2.9,0c-.3,-1.7,-3.3,-.5,-3.5,-2.7c-.1,-1.7,2.4,-1.9,3.6,-1.2c.4,.2,.7,.5,.7,1Z" class="g1"/>
<path d="M800.7,371c1.8,0,2.5,1.1,2.5,3c0,1.8,-.8,2.9,-2.6,2.9c-1.7,0,-2.4,-1.2,-2.5,-2.9c0,-2,.9,-3,2.6,-3Zm-.1,5.2c1.3,0,1.6,-.9,1.6,-2.2c0,-1.3,-.2,-2.3,-1.5,-2.3c-1.3,0,-1.6,1,-1.6,2.3c0,1.2,.3,2.2,1.5,2.2Z" class="g1"/>
<path d="M807.1,371c2.7,-.1,1.6,3.5,1.8,5.8h-1v-3.6c0,-.9,-.2,-1.5,-1.1,-1.4c-2.2,0,-1.3,3,-1.5,5h-.9v-5.7h.8c.1,.3,0,.7,.1,1c.3,-.7,.9,-1.1,1.8,-1.1Z" class="g1"/>
<path d="M812.5,371c1.9,0,2.6,1.3,2.5,3.2h-4c0,1.2,.5,2,1.6,2c.8,0,1.3,-.4,1.5,-.9l.8,.3c-.3,.8,-1.1,1.3,-2.3,1.3c-1.7,0,-2.6,-1.1,-2.6,-3c.1,-1.8,.8,-2.9,2.5,-2.9Zm1.6,2.4c.2,-1.8,-2.3,-2.3,-2.9,-.8c-.1,.2,-.2,.5,-.2,.8h3.1Z" class="g1"/>
<path d="M821.4,371c1.9,0,2.6,1.1,2.6,3c0,1.8,-.8,2.9,-2.6,2.9c-1.7,0,-2.5,-1.2,-2.5,-2.9c0,-2,.8,-3,2.5,-3Zm0,5.2c1.3,0,1.6,-.9,1.6,-2.2c0,-1.3,-.3,-2.3,-1.5,-2.3c-1.3,0,-1.6,1,-1.6,2.3c0,1.2,.3,2.2,1.5,2.2Z" class="g1"/>
<path d="M827.4,369.8c-.9,-.2,-1.2,.3,-1.1,1.3h1.1v.7h-1.1v5h-.9v-5h-.8v-.7h.8c-.2,-1.5,.5,-2.4,2,-2v.7Z" class="g1"/>
<path d="M832.1,375.4c0,.7,.5,.8,1.1,.6v.7c-.9,.3,-2,.2,-2,-1.1v-3.8h-.7v-.7h.7l.3,-1.2h.6v1.2h1.1v.7h-1.1v3.6Z" class="g1"/>
<path d="M836.5,371.8c-2.2,0,-1.3,3,-1.5,5h-.9V369h.9v3.1c.4,-.6,.8,-1.1,1.8,-1.1c2.7,0,1.6,3.5,1.8,5.8h-1v-3.6c.1,-1,-.2,-1.5,-1.1,-1.4Z" class="g1"/>
<path d="M842.7,371.9c-2.4,-.4,-1.6,2.7,-1.7,4.9h-1v-5.7h.9c0,.4,-.1,.9,0,1.2c.2,-.8,.7,-1.5,1.8,-1.2v.8Z" class="g1"/>
<path d="M845.8,371c1.8,0,2.5,1.3,2.5,3.2h-4c0,1.2,.4,2,1.5,2c.8,0,1.3,-.4,1.5,-.9l.8,.3c-.3,.8,-1.1,1.3,-2.3,1.3c-1.7,0,-2.6,-1.1,-2.5,-3c0,-1.8,.7,-2.9,2.5,-2.9Zm1.5,2.4c.2,-1.8,-2.2,-2.3,-2.9,-.8c0,.2,-.1,.5,-.1,.8h3Z" class="g1"/>
<path d="M851.7,371c1.9,0,2.6,1.3,2.5,3.2h-4c0,1.2,.4,2,1.6,2c.7,0,1.3,-.4,1.4,-.9l.9,.3c-.4,.8,-1.1,1.3,-2.3,1.3c-1.7,0,-2.6,-1.1,-2.6,-3c0,-1.8,.8,-2.9,2.5,-2.9Zm1.6,2.4c.1,-1.8,-2.3,-2.3,-2.9,-.8c-.1,.2,-.2,.5,-.2,.8h3.1Z" class="g1"/>
<path d="M860.6,371c1.9,0,2.6,1.1,2.6,3c0,1.8,-.9,2.9,-2.6,2.9c-1.8,0,-2.5,-1.2,-2.5,-2.9c0,-2,.8,-3,2.5,-3Zm0,5.2c1.3,0,1.6,-.9,1.6,-2.2c0,-1.3,-.3,-2.3,-1.5,-2.3c-1.3,0,-1.6,1,-1.6,2.3c0,1.2,.3,2.2,1.5,2.2Z" class="g1"/>
<path d="M867,371c1.6,0,2.1,1.2,2.1,2.9c0,1.7,-.5,2.9,-2.1,3c-.9,0,-1.4,-.4,-1.8,-1l.1,3.1h-1v-7.9h.9l.1,.9c.3,-.6,.8,-1,1.7,-1Zm-.2,5.2c1.2,0,1.3,-1,1.3,-2.2c0,-1.3,-.2,-2.2,-1.3,-2.2c-1.3,0,-1.5,.9,-1.5,2.2c0,1.3,.3,2.2,1.5,2.2Z" class="g1"/>
<path d="M871.3,375.4c-.1,.7,.5,.8,1.1,.6v.7c-1,.3,-2.1,.2,-2.1,-1.1v-3.8h-.6v-.7h.7l.3,-1.2h.6v1.2h1v.7h-1v3.6Z" class="g1"/>
<path d="M873.2,369.9V369h1v.9h-1Zm0,6.9v-5.7h1v5.7h-1Z" class="g1"/>
<path d="M877.8,371c1.9,0,2.5,1.1,2.5,3c.1,1.8,-.8,2.9,-2.5,2.9c-1.8,0,-2.5,-1.2,-2.5,-2.9c0,-2,.8,-3,2.5,-3Zm0,5.2c1.3,0,1.6,-.9,1.6,-2.2c0,-1.3,-.3,-2.3,-1.5,-2.3c-1.3,0,-1.6,1,-1.6,2.3c0,1.2,.3,2.2,1.5,2.2Z" class="g1"/>
<path d="M884.3,371c2.6,-.1,1.5,3.5,1.7,5.8h-.9v-3.6c0,-.9,-.2,-1.5,-1.2,-1.4c-2.1,0,-1.3,3,-1.4,5h-1v-5.7h.9c0,.3,0,.7,.1,1c.3,-.7,.8,-1.1,1.8,-1.1Z" class="g1"/>
<path d="M890.7,372.5c0,-1,-2.5,-1.1,-2.5,0c.4,1.6,3.4,.4,3.5,2.7c.1,2.3,-4.5,2.2,-4.7,.2l.9,-.1c.1,1.1,2.8,1.3,2.9,0c-.3,-1.7,-3.4,-.5,-3.5,-2.7c-.2,-1.7,2.4,-1.9,3.6,-1.2c.3,.2,.6,.5,.7,1Z" class="g1"/>
<path d="M896.8,375.4c-.1,.7,.5,.8,1.1,.6v.7c-.9,.3,-2,.2,-2,-1.1v-3.8h-.7v-.7h.7l.3,-1.2h.6v1.2h1v.7h-1v3.6Z" class="g1"/>
<path d="M901,371c1.8,0,2.5,1.1,2.5,3c.1,1.8,-.8,2.9,-2.5,2.9c-1.8,0,-2.5,-1.2,-2.5,-2.9c0,-2,.8,-3,2.5,-3Zm0,5.2c1.3,0,1.5,-.9,1.5,-2.2c0,-1.3,-.2,-2.3,-1.5,-2.3c-1.3,0,-1.5,1,-1.5,2.3c0,1.2,.2,2.2,1.5,2.2Z" class="g1"/>
<path d="M910.2,376.8H909l-2,-5.7h1l1.6,4.9l1.7,-4.9h1Z" class="g1"/>
<path d="M913,369.9V369h1v.9h-1Zm0,6.9v-5.7h1v5.7h-1Z" class="g1"/>
<path d="M917.6,371c1.9,0,2.6,1.3,2.5,3.2h-4c0,1.2,.4,2,1.6,2c.7,0,1.2,-.4,1.4,-.9l.9,.3c-.4,.8,-1.1,1.3,-2.3,1.3c-1.8,0,-2.6,-1.1,-2.6,-3c0,-1.8,.8,-2.9,2.5,-2.9Zm1.6,2.4c.1,-1.8,-2.3,-2.3,-2.9,-.8c-.1,.2,-.2,.5,-.2,.8h3.1Z" class="g1"/>
<path d="M926.7,376.8h-1.1l-1.2,-4.9l-1.2,4.9h-1l-1.6,-5.7h.9l1.2,4.9l1.2,-4.9h1l1.3,4.9l1.2,-4.9h.9Z" class="g1"/>
<path d="M747.3,406h-1.1l-3,-7.4h1.1l2.5,6.5l2.4,-6.5h1.1Z" class="g1"/>
<path d="M750.8,399.1v-.9h1v.9h-1Zm0,6.9v-5.6h1V406h-1Z" class="g1"/>
<path d="M755.4,400.2c1.9,0,2.6,1.3,2.5,3.2h-4c0,1.2,.4,2,1.6,2c.8,0,1.3,-.4,1.4,-.9l.9,.3c-.4,.8,-1.1,1.3,-2.3,1.3c-1.7,0,-2.6,-1.1,-2.6,-3c0,-1.8,.8,-2.9,2.5,-2.9Zm1.6,2.4c.1,-1.7,-2.3,-2.2,-2.9,-.8c-.1,.2,-.2,.5,-.2,.8H757Z" class="g1"/>
<path d="M764.5,406h-1.1l-1.1,-4.9L761,406h-1l-1.6,-5.6h.9l1.2,4.8l1.3,-4.8h1l1.2,4.8l1.2,-4.8h.9Z" class="g1"/>
<path d="M770,406v-7.4h1V406h-1Z" class="g1"/>
<path d="M775.5,400.2c2.6,-.1,1.6,3.5,1.8,5.8h-1v-3.6c0,-.9,-.2,-1.5,-1.1,-1.4c-2.2,0,-1.3,3,-1.5,5h-.9l-.1,-5.6h.9c.1,.3,0,.7,.1,.9c.3,-.6,.9,-1,1.8,-1.1Z" class="g1"/>
<path d="M781.2,406H780l-2,-5.6h1l1.6,4.9l1.7,-4.9h1Z" class="g1"/>
<path d="M786.3,400.2c1.9,0,2.5,1.3,2.5,3.2h-4c0,1.2,.4,2,1.5,2c.8,0,1.3,-.4,1.5,-.9l.8,.3c-.3,.8,-1.1,1.3,-2.3,1.3c-1.7,0,-2.6,-1.1,-2.5,-3c0,-1.8,.7,-2.9,2.5,-2.9Zm1.5,2.4c.2,-1.7,-2.2,-2.2,-2.9,-.8c0,.2,-.1,.5,-.1,.8h3Z" class="g1"/>
<path d="M792.7,400.2c2.7,-.1,1.6,3.5,1.8,5.8h-.9v-3.6c0,-.9,-.3,-1.5,-1.2,-1.4c-2.1,0,-1.3,3,-1.5,5H790v-5.6h.9c0,.3,-.1,.7,0,.9c.3,-.6,.9,-1,1.8,-1.1Z" class="g1"/>
<path d="M796.9,404.6c0,.7,.6,.9,1.2,.7v.7c-1,.3,-2.1,.1,-2.1,-1.2V401h-.7v-.6h.8l.2,-1.3h.6v1.3H798v.6h-1.1v3.6Z" class="g1"/>
<path d="M801.1,400.2c1.9,0,2.6,1.1,2.6,3c0,1.8,-.8,2.9,-2.6,2.9c-1.7,0,-2.5,-1.1,-2.5,-2.9c0,-2,.8,-3,2.5,-3Zm0,5.2c1.3,0,1.6,-.9,1.6,-2.2c0,-1.3,-.3,-2.3,-1.5,-2.3c-1.3,0,-1.6,1,-1.6,2.3c0,1.3,.3,2.2,1.5,2.2Z" class="g1"/>
<path d="M807.5,401.2c-2.3,-.5,-1.6,2.7,-1.7,4.8h-1v-5.6h.9c0,.3,0,.8,.1,1.1c.1,-.8,.7,-1.4,1.7,-1.2v.9Z" class="g1"/>
<path d="M813,400.4l-2.6,6.5c-.4,.8,-1.1,1.5,-2.4,1.3v-.7c1.2,.1,1.6,-.6,1.9,-1.5l-2.2,-5.6h1l1.7,4.6l1.6,-4.6h1Z" class="g1"/>
<path d="M820.1,404.9c-.4,.7,-.9,1.2,-2,1.2c-1.1,0,-1.7,-.6,-1.7,-1.7c-.1,-1.9,1.8,-1.8,3.7,-1.8c.1,-1.1,-.3,-1.7,-1.2,-1.7c-.7,.1,-1.3,.3,-1.3,1l-1,-.1c.2,-1.1,1,-1.6,2.3,-1.6c1.3,0,2.1,.6,2.1,1.9v2.5c0,.6,.2,.9,.9,.8v.6c-1,.2,-1.8,-.1,-1.8,-1.1Zm-2.7,-.5c0,.6,.3,1,.9,1c1.2,-.1,1.9,-.9,1.8,-2.2c-1.3,.1,-2.7,-.1,-2.7,1.2Z" class="g1"/>
<path d="M825.3,400.2c2.7,-.1,1.6,3.5,1.8,5.8h-.9v-3.6c0,-.9,-.3,-1.5,-1.2,-1.4c-2.1,0,-1.3,3,-1.4,5h-1v-5.6h.9c0,.3,-.1,.7,0,.9c.4,-.6,.9,-1,1.8,-1.1Z" class="g1"/>
<path d="M830.3,400.2c1,0,1.5,.4,1.8,1v-3h.9l.1,7.8h-.9c-.1,-.3,0,-.7,-.1,-.9c-.3,.7,-.8,1,-1.8,1c-1.5,0,-2,-1.1,-2,-2.9c0,-2,.6,-3,2,-3Zm.3,.7c-1.2,0,-1.4,1.1,-1.4,2.3c0,1.2,.2,2.2,1.4,2.2c1.2,0,1.5,-1,1.5,-2.3c0,-1.2,-.3,-2.2,-1.5,-2.2Z" class="g1"/>
<path d="M843,401c-2,.1,-1.1,3.1,-1.3,5h-.9v-3.6c0,-.9,-.2,-1.5,-1.1,-1.4c-1.9,.1,-1.1,3.1,-1.3,5h-.9v-5.6h.9c0,.3,-.1,.7,0,.9c.3,-1.3,3,-1.5,3.2,0c.3,-.6,.8,-1,1.7,-1.1c2.5,0,1.4,3.6,1.7,5.8h-1v-3.6c0,-.9,-.1,-1.5,-1,-1.4Z" class="g1"/>
<path d="M849.8,404.9c-.4,.7,-.9,1.2,-2,1.2c-1.1,0,-1.7,-.6,-1.7,-1.7c0,-1.9,1.9,-1.8,3.7,-1.8c.1,-1.1,-.3,-1.7,-1.2,-1.7c-.7,.1,-1.2,.3,-1.3,1l-1,-.1c.2,-1.1,1,-1.6,2.3,-1.6c1.3,0,2.1,.6,2.1,1.9v2.5c0,.6,.3,.9,.9,.8v.6c-.9,.2,-1.8,-.1,-1.8,-1.1Zm-2.7,-.5c0,.6,.3,1,.9,1c1.2,-.1,1.9,-.9,1.8,-2.2c-1.3,.1,-2.7,-.1,-2.7,1.2Z" class="g1"/>
<path d="M855.1,400.2c2.6,-.1,1.5,3.5,1.7,5.8h-.9v-3.6c0,-.9,-.3,-1.5,-1.2,-1.4c-2.1,0,-1.3,3,-1.4,5h-1v-5.6h.9c0,.3,0,.7,0,.9c.4,-.6,.9,-1,1.9,-1.1Z" class="g1"/>
<path d="M858.2,399.1v-.9h1v.9h-1Zm0,6.9v-5.6h1V406h-1Z" class="g1"/>
<path d="M863.3,400.2c1.6,.1,2.1,1.3,2.1,2.9c0,1.7,-.5,3,-2.1,3c-.9,0,-1.5,-.4,-1.8,-1v3.1h-.9l-.1,-7.8h1v.8c.3,-.6,.9,-1,1.8,-1Zm-.3,5.2c1.2,0,1.4,-1,1.4,-2.2c0,-1.2,-.2,-2.2,-1.4,-2.2c-1.2,0,-1.5,.9,-1.5,2.2c0,1.3,.3,2.2,1.5,2.2Z" class="g1"/>
<path d="M868.3,406.1c-2.6,.1,-1.6,-3.4,-1.8,-5.7h.9v3.5c0,.9,.2,1.5,1.2,1.5c2.1,-.1,1.3,-3,1.5,-5h.9V406h-.9c0,-.3,.1,-.7,0,-1c-.3,.7,-.9,1.1,-1.8,1.1Z" class="g1"/>
<path d="M872.5,406v-7.8h.9V406h-.9Z" class="g1"/>
<path d="M878.3,404.9c-.5,.7,-.9,1.2,-2,1.2c-1.1,0,-1.8,-.6,-1.8,-1.7c0,-1.9,1.9,-1.8,3.7,-1.8c.1,-1.1,-.2,-1.7,-1.2,-1.7c-.7,.1,-1.2,.3,-1.2,1l-1,-.1c.2,-1.1,1,-1.6,2.3,-1.6c1.3,0,2.1,.6,2.1,1.9v2.5c0,.6,.2,.9,.8,.8v.6c-.9,.2,-1.8,-.1,-1.7,-1.1Zm-2.8,-.5c0,.6,.4,1,1,1c1.2,-.1,1.8,-.9,1.7,-2.2c-1.2,.1,-2.7,-.1,-2.7,1.2Z" class="g1"/>
<path d="M881.8,404.6c-.1,.7,.5,.9,1.1,.7v.7c-1,.3,-2.1,.1,-2.1,-1.2V401h-.6v-.6h.7l.3,-1.3h.6v1.3h1v.6h-1v3.6Z" class="g1"/>
<path d="M886,400.2c1.8,0,2.5,1.3,2.5,3.2h-4c0,1.2,.4,2,1.5,2c.8,0,1.3,-.4,1.5,-.9l.8,.3c-.3,.8,-1.1,1.3,-2.3,1.3c-1.7,0,-2.6,-1.1,-2.6,-3c.1,-1.8,.8,-2.9,2.6,-2.9Zm1.5,2.4c.2,-1.7,-2.2,-2.2,-2.9,-.8c-.1,.2,-.1,.5,-.1,.8h3Z" class="g1"/>
<path d="M892.8,398.6c3.5,-.2,6.4,.3,6.3,3.7c-.1,2.3,-1.3,3.7,-3.6,3.7h-2.7v-7.4Zm1,6.6c2.6,.2,4.3,-.5,4.3,-2.9c0,-2.5,-1.8,-3,-4.3,-2.9v5.8Z" class="g1"/>
<path d="M903.8,404.9c-.5,.7,-.9,1.2,-2,1.2c-1.1,0,-1.8,-.6,-1.8,-1.7c0,-1.9,1.9,-1.8,3.7,-1.8c.1,-1.1,-.2,-1.7,-1.2,-1.7c-.7,.1,-1.2,.3,-1.2,1l-1,-.1c.1,-1.1,1,-1.6,2.3,-1.6c1.3,0,2.1,.6,2.1,1.9v2.5c0,.6,.2,.9,.8,.8v.6c-.9,.2,-1.8,-.1,-1.7,-1.1Zm-2.8,-.5c0,.6,.4,1,1,1c1.2,-.1,1.8,-.9,1.7,-2.2c-1.2,.1,-2.7,-.1,-2.7,1.2Z" class="g1"/>
<path d="M907.3,404.6c-.1,.7,.5,.9,1.1,.7v.7c-1,.3,-2.1,.1,-2.1,-1.2V401h-.6v-.6h.7l.3,-1.3h.6v1.3h1v.6h-1v3.6Z" class="g1"/>
<path d="M912.7,404.9c-.5,.7,-.9,1.2,-2,1.2c-1.1,0,-1.8,-.6,-1.8,-1.7c0,-1.9,1.9,-1.8,3.8,-1.8c0,-1.1,-.3,-1.7,-1.3,-1.7c-.7,.1,-1.2,.3,-1.2,1l-1,-.1c.2,-1.1,1,-1.6,2.3,-1.6c1.3,0,2.1,.6,2.1,1.9v2.5c0,.6,.2,.9,.8,.8v.6c-.9,.2,-1.8,-.1,-1.7,-1.1Zm-2.8,-.5c0,.6,.4,1,1,1c1.2,-.1,1.8,-.9,1.8,-2.2c-1.3,.1,-2.8,-.1,-2.8,1.2Z" class="g1"/>
<path d="M189.8,426.3c-6.1,0,-11,4.9,-11,11v33c0,6,4.9,11,11,11h88c6,0,11,-5,11,-11v-33c0,-6.1,-5,-11,-11,-11Z" class="g9"/>
<path d="M189.8,426.3c-6.1,0,-11,4.9,-11,11v33c0,6,4.9,11,11,11h88c6,0,11,-5,11,-11v-33c0,-6.1,-5,-11,-11,-11Z" class="g8"/>
<path d="M205.6,455.9v-6.5c-.6,2.3,-1.6,4.3,-2.3,6.5h-.7l-2.4,-6.5v6.5h-.9v-7.4h1.4l2.2,6.3c.7,-2.2,1.6,-4.2,2.3,-6.3h1.3v7.4h-.9Z" class="g1"/>
<path d="M211.5,454.8c-.4,.6,-.9,1.2,-2,1.2c-1.1,0,-1.7,-.6,-1.7,-1.7c-.1,-1.9,1.9,-1.9,3.7,-1.9c.1,-1,-.3,-1.6,-1.2,-1.6c-.7,.1,-1.2,.2,-1.3,1l-1,-.1c.2,-1.1,1,-1.6,2.3,-1.6c1.3,0,2.1,.6,2.1,1.9v2.5c0,.6,.3,.9,.9,.8v.6c-.9,.2,-1.8,-.1,-1.8,-1.1Zm-2.7,-.5c0,.6,.3,1,.9,1c1.2,-.1,1.9,-.9,1.8,-2.2c-1.3,.1,-2.7,-.2,-2.7,1.2Z" class="g1"/>
<path d="M216.7,450.1c2.7,-.1,1.6,3.5,1.8,5.8h-.9v-3.6c0,-.9,-.3,-1.5,-1.2,-1.4c-2.1,0,-1.3,3,-1.4,5h-1v-5.7h.9c0,.3,-.1,.8,0,1c.4,-.7,.9,-1,1.8,-1.1Z" class="g1"/>
<path d="M223.4,454.8c-.4,.6,-.9,1.2,-2,1.2c-1.1,0,-1.7,-.6,-1.7,-1.7c-.1,-1.9,1.8,-1.9,3.7,-1.9c.1,-1,-.3,-1.6,-1.2,-1.6c-.8,.1,-1.3,.2,-1.3,1l-1,-.1c.2,-1.1,1,-1.6,2.3,-1.6c1.3,0,2.1,.6,2.1,1.9v2.5c0,.6,.2,.9,.9,.8v.6c-1,.2,-1.9,-.1,-1.8,-1.1Zm-2.8,-.5c0,.6,.4,1,1,1c1.2,-.1,1.9,-.9,1.8,-2.2c-1.3,.1,-2.8,-.2,-2.8,1.2Z" class="g1"/>
<path d="M230.4,450.2c-.3,3.8,1.2,8.7,-3.3,7.8c-.6,-.2,-1.1,-.6,-1.3,-1.3l1,-.1c.4,1.4,3,.9,2.6,-.9v-.9c-.3,.7,-.8,1.1,-1.8,1.1c-1.6,0,-2,-1.2,-2,-2.8c0,-1.7,.5,-2.9,2.1,-2.9c.9,-.1,1.4,.4,1.8,1c0,-.3,0,-.7,0,-1h.9Zm-2.5,5c1.1,0,1.5,-.9,1.5,-2.1c0,-1.3,-.4,-2.3,-1.5,-2.3c-1.1,0,-1.3,1,-1.3,2.3c0,1.2,.2,2.1,1.3,2.1Z" class="g1"/>
<path d="M234.1,450.1c1.8,0,2.5,1.3,2.5,3.2h-4.1c0,1.2,.5,2,1.6,2c.8,0,1.3,-.4,1.5,-.9l.8,.3c-.3,.8,-1.1,1.3,-2.3,1.3c-1.7,0,-2.6,-1.1,-2.6,-3c.1,-1.8,.8,-2.9,2.6,-2.9Zm1.5,2.4c.2,-1.7,-2.2,-2.3,-2.9,-.8c-.1,.2,-.2,.5,-.2,.8h3.1Z" class="g1"/>
<path d="M240.4,451c-2.3,-.4,-1.6,2.7,-1.7,4.9h-.9l-.1,-5.7h.9c.1,.4,0,.9,.1,1.2c.2,-.8,.7,-1.5,1.7,-1.2v.8Z" class="g1"/>
<path d="M247.3,449.4v6.5h-1v-6.5h-2.5v-.9h6v.9h-2.5Z" class="g1"/>
<path d="M253.1,454.8c-.5,.6,-1,1.2,-2.1,1.2c-1,0,-1.7,-.6,-1.7,-1.7c0,-1.9,1.9,-1.9,3.7,-1.9c.1,-1,-.2,-1.6,-1.2,-1.6c-.7,.1,-1.2,.2,-1.2,1l-1,-.1c.1,-1.1,1,-1.6,2.2,-1.6c1.4,0,2.2,.6,2.2,1.9v2.5c-.1,.6,.2,.9,.8,.8v.6c-.9,.2,-1.8,-.1,-1.7,-1.1Zm-2.8,-.5c0,.6,.3,1,.9,1c1.3,-.1,1.9,-.9,1.8,-2.2c-1.3,.1,-2.7,-.2,-2.7,1.2Z" class="g1"/>
<path d="M258.2,450.1c1.6,0,2.1,1.2,2.1,2.9c0,2,-.7,3,-2.1,3c-.9,0,-1.4,-.3,-1.7,-1l-.1,.9h-.9v-7.8h1v3c.3,-.6,.8,-1,1.7,-1Zm-.2,5.2c1.2,0,1.3,-1,1.3,-2.2c0,-1.2,-.1,-2.3,-1.3,-2.2c-1.3,0,-1.5,.9,-1.5,2.2c0,1.3,.3,2.2,1.5,2.2Z" class="g1"/>
<path d="M261.5,455.9v-7.8h.9v7.8h-.9Z" class="g1"/>
<path d="M266.1,450.1c1.8,0,2.5,1.3,2.5,3.2h-4.1c0,1.2,.5,2,1.6,2c.8,0,1.3,-.4,1.5,-.9l.8,.3c-.3,.8,-1.1,1.3,-2.3,1.3c-1.7,0,-2.6,-1.1,-2.6,-3c.1,-1.8,.8,-2.9,2.6,-2.9Zm1.5,2.4c.2,-1.7,-2.3,-2.3,-2.9,-.8c-.1,.2,-.2,.5,-.2,.8h3.1Z" class="g1"/>
<path d="M371.3,357.8v33.9H233.8v22.9" class="g8"/>
<path d="M371.6,357.8h-.7v-.3h.7Z" class="g1"/>
<path d="M233.8,424.8L230.6,415h6.3Z" class="g1"/>
<path d="M233.8,424.8L230.6,415h6.3Z" class="g8"/>
<path d="M146.2,381.9c0,1.9,-1.1,2.8,-3,2.8c-1.9,0,-3,-.9,-3,-2.8v-4.7h1c.2,2.7,-1,6.7,2,6.7c3,0,1.9,-3.9,2.1,-6.7h.9v4.7Z" class="g1"/>
<path d="M151.1,380.4c-.1,-1,-2.6,-1.2,-2.6,0c.4,1.5,3.4,.3,3.5,2.6c.1,2.4,-4.4,2.2,-4.7,.3l.9,-.2c.1,1.1,2.9,1.4,2.9,0c-.3,-1.6,-3.4,-.4,-3.5,-2.6c-.1,-1.7,2.4,-1.9,3.6,-1.3c.4,.2,.6,.6,.7,1Z" class="g1"/>
<path d="M155.4,378.9c1.8,0,2.5,1.2,2.5,3.1h-4.1c0,1.2,.5,2,1.6,2c.8,.1,1.3,-.3,1.5,-.8l.8,.2c-.3,.8,-1.1,1.3,-2.3,1.3c-1.7,0,-2.6,-1.1,-2.6,-2.9c.1,-1.8,.8,-2.9,2.6,-2.9Zm1.5,2.4c.2,-1.8,-2.2,-2.3,-2.9,-.9c-.1,.2,-.2,.5,-.2,.9h3.1Z" class="g1"/>
<path d="M161.7,379.8c-2.3,-.5,-1.6,2.7,-1.7,4.8h-.9L159,379h.9c.1,.3,0,.8,.1,1.1c.2,-.8,.7,-1.4,1.7,-1.2v.9Z" class="g1"/>
<path d="M165.7,384.6v-7.4h5.6v.9h-4.6v2.3H171v.8h-4.3v2.6h4.8v.8h-5.8Z" class="g1"/>
<path d="M175.4,378.9c2.7,-.2,1.6,3.4,1.8,5.7h-.9V381c0,-.9,-.3,-1.4,-1.2,-1.4c-2.1,.1,-1.3,3,-1.4,5h-1V379h.9c0,.3,-.1,.7,0,.9c.4,-.6,.9,-1,1.8,-1Z" class="g1"/>
<path d="M179.7,383.2c-.1,.7,.5,.9,1.1,.7v.7c-1,.3,-2.1,.1,-2.1,-1.2v-3.7h-.6V379h.7l.2,-1.3h.7V379h1v.7h-1v3.5Z" class="g1"/>
<path d="M183.8,378.9c1.9,0,2.6,1.2,2.5,3.1h-4c0,1.2,.5,2,1.6,2c.8,.1,1.3,-.3,1.5,-.8l.8,.2c-.3,.8,-1.1,1.3,-2.3,1.3c-1.7,0,-2.6,-1.1,-2.6,-2.9c.1,-1.8,.8,-2.9,2.5,-2.9Zm1.6,2.4c.2,-1.8,-2.3,-2.3,-2.9,-.9c-.1,.2,-.2,.5,-.2,.9h3.1Z" class="g1"/>
<path d="M190.2,379.8c-2.3,-.5,-1.6,2.7,-1.7,4.8h-.9l-.1,-5.6h.9c.1,.3,0,.8,.1,1.1c.2,-.8,.7,-1.4,1.7,-1.2v.9Z" class="g1"/>
<path d="M194.4,380.4c-.1,-1,-2.6,-1.2,-2.6,0c.4,1.5,3.4,.3,3.5,2.6c.1,2.4,-4.4,2.2,-4.6,.3l.8,-.2c.1,1.1,2.9,1.4,2.9,0c-.3,-1.6,-3.4,-.4,-3.5,-2.6c-.1,-1.7,2.4,-1.9,3.6,-1.3c.4,.2,.6,.6,.7,1Z" class="g1"/>
<path d="M202.9,383.5c-.5,.7,-1,1.3,-2.1,1.2c-1,0,-1.7,-.6,-1.7,-1.7c0,-1.9,1.9,-1.8,3.7,-1.8c.1,-1.1,-.2,-1.6,-1.2,-1.6c-.7,0,-1.2,.2,-1.2,.9l-1,-.1c.1,-1.1,1,-1.5,2.3,-1.5c1.3,0,2.1,.5,2.1,1.9v2.4c0,.6,.2,.9,.8,.8v.6c-.9,.3,-1.8,-.1,-1.7,-1.1Zm-2.8,-.5c0,.6,.4,1,1,1c1.2,-.1,1.8,-.8,1.7,-2.2c-1.2,.1,-2.7,-.1,-2.7,1.2Z" class="g1"/>
<path d="M213.8,379.6c-2,.1,-1.1,3.1,-1.3,5h-.9V381c0,-.8,-.1,-1.5,-1,-1.4c-2,.1,-1.2,3.1,-1.3,5h-1V379h.9c0,.3,0,.7,.1,.9c.3,-1.3,2.9,-1.5,3.1,0c.4,-.6,.8,-1,1.8,-1c2.5,-.1,1.4,3.5,1.6,5.7h-.9V381c0,-.8,-.2,-1.4,-1.1,-1.4Z" class="g1"/>
<path d="M220.7,383.5c-.5,.7,-1,1.3,-2.1,1.2c-1,0,-1.7,-.6,-1.7,-1.7c0,-1.9,1.9,-1.8,3.7,-1.8c.1,-1.1,-.2,-1.6,-1.2,-1.6c-.7,0,-1.2,.2,-1.2,.9l-1,-.1c.1,-1.1,1,-1.5,2.2,-1.5c1.4,0,2.2,.5,2.2,1.9v2.4c-.1,.6,.2,.9,.8,.8v.6c-.9,.3,-1.8,-.1,-1.7,-1.1Zm-2.8,-.5c0,.6,.4,1,.9,1c1.3,-.1,1.9,-.8,1.8,-2.2c-1.2,.1,-2.7,-.1,-2.7,1.2Z" class="g1"/>
<path d="M225.9,378.9c2.6,-.2,1.6,3.4,1.8,5.7h-1V381c0,-.9,-.2,-1.4,-1.1,-1.4c-2.2,.1,-1.3,3,-1.5,5h-.9l-.1,-5.6h.9c0,.3,0,.7,.1,.9c.3,-.6,.8,-1,1.8,-1Z" class="g1"/>
<path d="M232.5,383.5c-.4,.7,-.9,1.3,-2,1.2c-1.1,0,-1.7,-.6,-1.7,-1.7c0,-1.9,1.9,-1.8,3.7,-1.8c.1,-1.1,-.3,-1.6,-1.2,-1.6c-.7,0,-1.2,.2,-1.3,.9l-.9,-.1c.1,-1.1,.9,-1.5,2.2,-1.5c1.4,0,2.2,.5,2.2,1.9v2.4c-.1,.6,.2,.9,.8,.8v.6c-.9,.3,-1.8,-.1,-1.8,-1.1Zm-2.7,-.5c0,.6,.3,1,.9,1c1.2,-.1,1.9,-.8,1.8,-2.2c-1.3,.1,-2.7,-.1,-2.7,1.2Z" class="g1"/>
<path d="M239.5,379c-.2,3.7,1.3,8.7,-3.2,7.7c-.7,-.2,-1.1,-.6,-1.3,-1.3l.9,-.1c.5,1.4,3,.9,2.7,-.8v-.9c-.4,.6,-.9,1,-1.8,1c-1.6,0,-2.1,-1.2,-2.1,-2.8c0,-1.7,.5,-2.9,2.1,-2.9c.9,0,1.5,.5,1.8,1c0,-.3,0,-.7,.1,-.9h.8Zm-2.4,5c1.1,0,1.5,-1,1.5,-2.2c0,-1.3,-.4,-2.2,-1.5,-2.2c-1.2,0,-1.4,1,-1.4,2.2c0,1.2,.2,2.2,1.4,2.2Z" class="g1"/>
<path d="M243.2,378.9c1.9,0,2.6,1.2,2.5,3.1h-4c0,1.2,.4,2,1.6,2c.7,.1,1.2,-.3,1.4,-.8l.8,.2c-.3,.8,-1.1,1.3,-2.2,1.3c-1.8,0,-2.7,-1.1,-2.6,-2.9c0,-1.8,.7,-2.9,2.5,-2.9Zm1.5,2.4c.2,-1.8,-2.2,-2.3,-2.8,-.9c-.1,.2,-.2,.5,-.2,.9h3Z" class="g1"/>
<path d="M249.6,379.8c-2.4,-.5,-1.6,2.7,-1.7,4.8h-1V379h.9c0,.3,-.1,.8,0,1.1c.2,-.8,.7,-1.4,1.8,-1.2v.9Z" class="g1"/>
<path d="M253.5,377.2c2.6,.1,5.7,-.4,5.7,2.3c0,2.3,-2.3,2.4,-4.7,2.2v2.9h-1v-7.4Zm1,3.8c1.7,0,3.7,.3,3.7,-1.5c0,-1.8,-2,-1.4,-3.7,-1.4V381Z" class="g1"/>
<path d="M264,383.5c-.5,.7,-.9,1.3,-2,1.2c-1.1,0,-1.8,-.6,-1.8,-1.7c0,-1.9,1.9,-1.8,3.7,-1.8c.1,-1.1,-.2,-1.6,-1.2,-1.6c-.7,0,-1.2,.2,-1.2,.9l-1,-.1c.1,-1.1,1,-1.5,2.3,-1.5c1.3,0,2.1,.5,2.1,1.9v2.4c0,.6,.2,.9,.8,.8v.6c-.9,.3,-1.8,-.1,-1.7,-1.1Zm-2.8,-.5c0,.6,.4,1,1,1c1.2,-.1,1.8,-.8,1.7,-2.2c-1.2,.1,-2.7,-.1,-2.7,1.2Z" class="g1"/>
<path d="M269.7,380.4c-.1,-1,-2.5,-1.2,-2.6,0c.5,1.5,3.5,.3,3.6,2.6c.1,2.4,-4.5,2.2,-4.7,.3l.9,-.2c.1,1.1,2.8,1.4,2.9,0c-.3,-1.6,-3.4,-.4,-3.5,-2.6c-.2,-1.7,2.4,-1.9,3.6,-1.3c.3,.2,.6,.6,.7,1Z" class="g1"/>
<path d="M275.1,380.4c-.1,-1,-2.6,-1.2,-2.6,0c.4,1.5,3.4,.3,3.5,2.6c.1,2.4,-4.4,2.2,-4.6,.3l.8,-.2c.1,1.1,2.9,1.4,2.9,0c-.3,-1.6,-3.3,-.4,-3.5,-2.6c-.1,-1.7,2.4,-1.9,3.6,-1.3c.4,.2,.7,.6,.7,1Z" class="g1"/>
<path d="M282.5,384.6h-1l-1.2,-4.9l-1.2,4.9H278L276.4,379h.9l1.2,4.8l1.3,-4.8h1l1.2,4.8l1.2,-4.8h1Z" class="g1"/>
<path d="M287.1,378.9c1.8,-.1,2.5,1.1,2.5,2.9c0,1.9,-.8,2.9,-2.6,2.9c-1.7,0,-2.4,-1.1,-2.4,-2.9c0,-2,.8,-2.9,2.5,-2.9ZM287,384c1.4,.1,1.6,-.9,1.6,-2.2c0,-1.3,-.2,-2.2,-1.5,-2.2c-1.3,0,-1.6,.9,-1.6,2.2c0,1.3,.3,2.2,1.5,2.2Z" class="g1"/>
<path d="M293.4,379.8c-2.3,-.5,-1.5,2.7,-1.7,4.8h-.9V379h.9c0,.3,-.1,.8,0,1.1c.2,-.8,.7,-1.4,1.7,-1.2v.9Z" class="g1"/>
<path d="M296.1,378.9c.9,0,1.4,.3,1.8,.9v-2.9h.9v7.7h-.9c0,-.3,0,-.7,0,-.9c-.3,.7,-.9,1,-1.8,1c-1.6,0,-2,-1.1,-2.1,-2.9c0,-1.9,.7,-2.9,2.1,-2.9Zm.3,.7c-1.2,0,-1.4,1,-1.4,2.2c0,1.2,.2,2.2,1.3,2.2c1.3,0,1.6,-1,1.6,-2.3c0,-1.2,-.3,-2.2,-1.5,-2.1Z" class="g1"/>
<path d="M306.7,383.5c-.5,.7,-.9,1.3,-2,1.2c-1.1,0,-1.8,-.6,-1.8,-1.7c0,-1.9,1.9,-1.8,3.8,-1.8c0,-1.1,-.3,-1.6,-1.3,-1.6c-.7,0,-1.2,.2,-1.2,.9l-1,-.1c.2,-1.1,1,-1.5,2.3,-1.5c1.3,0,2.1,.5,2.1,1.9v2.4c0,.6,.2,.9,.8,.8v.6c-.9,.3,-1.8,-.1,-1.7,-1.1Zm-2.8,-.5c0,.6,.4,1,1,1c1.2,-.1,1.8,-.8,1.8,-2.2c-1.3,.1,-2.8,-.1,-2.8,1.2Z" class="g1"/>
<path d="M311.9,378.9c2.7,-.2,1.6,3.4,1.8,5.7h-1V381c0,-.9,-.2,-1.4,-1.1,-1.4c-2.2,.1,-1.3,3,-1.5,5h-.9V379h.8c.1,.3,0,.7,.1,.9c.3,-.6,.9,-1,1.8,-1Z" class="g1"/>
<path d="M316.9,378.9c.9,0,1.4,.3,1.8,.9v-2.9h.9v7.7h-.9c0,-.3,0,-.7,0,-.9c-.3,.7,-.9,1,-1.8,1c-1.6,0,-2,-1.1,-2.1,-2.9c0,-1.9,.7,-2.9,2.1,-2.9Zm.3,.7c-1.2,0,-1.4,1,-1.4,2.2c0,1.2,.2,2.2,1.3,2.2c1.3,0,1.6,-1,1.6,-2.3c0,-1.2,-.3,-2.2,-1.5,-2.1Z" class="g1"/>
<path d="M325.8,384.7c-2.7,.2,-1.6,-3.4,-1.9,-5.7h1v3.5c0,1,.2,1.5,1.2,1.5c2.1,-.1,1.3,-3,1.4,-5h1v5.6h-.9c0,-.3,0,-.7,-.1,-1c-.3,.7,-.8,1.1,-1.7,1.1Z" class="g1"/>
<path d="M333.2,380.4c-.1,-1,-2.5,-1.2,-2.6,0c.5,1.5,3.4,.3,3.6,2.6c.1,2.4,-4.5,2.2,-4.7,.3l.8,-.2c.1,1.1,2.9,1.4,2.9,0c-.3,-1.6,-3.3,-.4,-3.5,-2.6c-.1,-1.7,2.5,-1.9,3.7,-1.3c.3,.2,.6,.6,.7,1Z" class="g1"/>
<path d="M337.5,378.9c1.9,0,2.6,1.2,2.5,3.1h-4c0,1.2,.4,2,1.6,2c.8,.1,1.3,-.3,1.4,-.8l.9,.2c-.4,.8,-1.1,1.3,-2.3,1.3c-1.7,0,-2.6,-1.1,-2.6,-2.9c0,-1.8,.8,-2.9,2.5,-2.9Zm1.6,2.4c.1,-1.8,-2.3,-2.3,-2.9,-.9c-.1,.2,-.2,.5,-.2,.9h3.1Z" class="g1"/>
<path d="M343.9,379.8c-2.3,-.5,-1.6,2.7,-1.7,4.8h-1V379h.9c0,.3,0,.8,.1,1.1c.1,-.8,.6,-1.4,1.7,-1.2v.9Z" class="g1"/>
<path d="M348,384.6v-7.4h1v7.4h-1Z" class="g1"/>
<path d="M352.5,378.9c1,0,1.5,.3,1.8,.9v-2.9h.9l.1,7.7h-.9c-.1,-.3,0,-.7,-.1,-.9c-.3,.7,-.8,1,-1.8,1c-1.5,0,-2,-1.1,-2,-2.9c0,-1.9,.6,-2.9,2,-2.9Zm.3,.7c-1.2,0,-1.4,1,-1.4,2.2c0,1.2,.2,2.2,1.4,2.2c1.2,0,1.5,-1,1.5,-2.3c0,-1.2,-.3,-2.2,-1.5,-2.1Z" class="g1"/>
<path d="M289.4,453.8h81.9v-85" class="g8"/>
<path d="M289.4,454.1h-.3v-.7h.3Z" class="g1"/>
<path d="M371.3,358.6l3.1,9.8h-6.3Z" class="g1"/>
<path d="M371.3,358.6l3.1,9.8h-6.3Z" class="g8"/>
<path d="M605,673.8c0,7.5,-6.2,13.7,-13.7,13.7c-7.6,0,-13.8,-6.2,-13.8,-13.7c0,-7.6,6.2,-13.8,13.8,-13.8c7.5,0,13.7,6.2,13.7,13.8Z" class="g0"/>
<path d="M605,673.8c0,7.5,-6.2,13.7,-13.7,13.7c-7.6,0,-13.8,-6.2,-13.8,-13.7c0,-7.6,6.2,-13.8,13.8,-13.8c7.5,0,13.7,6.2,13.7,13.8Z" class="g8"/>
<path d="M599.5,673.8c0,4.5,-3.7,8.2,-8.2,8.2c-4.6,0,-8.3,-3.7,-8.3,-8.2c0,-4.6,3.7,-8.3,8.3,-8.3c4.5,0,8.2,3.7,8.2,8.3Z" class="g7"/>
<path d="M599.5,673.8c0,4.5,-3.7,8.2,-8.2,8.2c-4.6,0,-8.3,-3.7,-8.3,-8.2c0,-4.6,3.7,-8.3,8.3,-8.3c4.5,0,8.2,3.7,8.2,8.3Z" class="g8"/>
<path d="M591.6,648.4h-.7V576.9h.7ZM557.2,570.3v.7H233.4V481.9h.7v88.4Z" class="g1"/>
<path d="M234.1,481.9h-.7v-.3h.7Z" class="g1"/>
<path d="M591.3,658.6l-3.2,-9.9h6.3Z" class="g1"/>
<path d="M591.3,659.7l-3.7,-11.3h7.3Zm-2.7,-10.6l2.7,8.4l2.6,-8.4Z" class="g1"/>
<path d="M591.6,648.4h-.7V576.9h.7Zm55,-77.6H625.4v-.7h20.5V481.6h.7Z" class="g1"/>
<path d="M646.6,481.6h-.7v-.3h.7Z" class="g1"/>
<path d="M591.3,658.6l-3.2,-9.9h6.3Z" class="g1"/>
<path d="M591.3,659.7l-3.7,-11.3h7.3Zm-2.7,-10.6l2.7,8.4l2.6,-8.4Z" class="g1"/>
<path d="M591.6,648.4h-.7V576.9h.7ZM829.1,570.8H625.4v-.7h203V481.6h.7Z" class="g1"/>
<path d="M829.1,481.6h-.7v-.3h.7Z" class="g1"/>
<path d="M591.3,658.6l-3.2,-9.9h6.3Z" class="g1"/>
<path d="M591.3,659.7l-3.7,-11.3h7.3Zm-2.7,-10.6l2.7,8.4l2.6,-8.4Z" class="g1"/>
<path d="M591.6,648.4h-.7V576.9h.7ZM1012,570.8H625.4v-.7h385.9V481.6h.7Z" class="g1"/>
<path d="M1012,481.6h-.7v-.3h.7Z" class="g1"/>
<path d="M591.3,658.6l-3.2,-9.9h6.3Z" class="g1"/>
<path d="M591.3,659.7l-3.7,-11.3h7.3Zm-2.7,-10.6l2.7,8.4l2.6,-8.4Z" class="g1"/>
<path d="M558,565.2c2.6,0,5.6,-.4,5.6,2.2c0,2.4,-2.2,2.4,-4.6,2.3v2.9h-1v-7.4Zm1,3.7c1.6,0,3.6,.4,3.6,-1.5c0,-1.7,-2,-1.4,-3.6,-1.4v2.9Z" class="g1"/>
<path d="M567.6,567.7c-2.3,-.4,-1.6,2.7,-1.7,4.9H565l-.1,-5.7h.9c0,.4,0,.9,.1,1.2c.2,-.8,.7,-1.5,1.7,-1.2v.8Z" class="g1"/>
<path d="M570.7,566.8c1.9,0,2.5,1.1,2.5,3c.1,1.8,-.8,2.9,-2.5,2.9c-1.8,0,-2.5,-1.2,-2.5,-2.9c0,-2,.8,-3,2.5,-3Zm0,5.2c1.3,0,1.6,-.9,1.6,-2.2c0,-1.3,-.3,-2.3,-1.6,-2.3c-1.2,0,-1.5,1,-1.5,2.3c0,1.2,.3,2.2,1.5,2.2Z" class="g1"/>
<path d="M578.9,566.9c-.3,3.7,1.3,8.7,-3.2,7.8c-.7,-.2,-1.2,-.6,-1.3,-1.3l.9,-.1c.5,1.4,3,.9,2.7,-.9v-.9c-.4,.7,-.9,1.1,-1.9,1.1c-1.6,0,-2,-1.2,-2,-2.8c0,-1.7,.5,-2.9,2.1,-3c.9,0,1.5,.5,1.8,1.1c0,-.3,0,-.7,0,-1h.9Zm-2.4,5c1,0,1.5,-.9,1.5,-2.1c0,-1.3,-.5,-2.3,-1.5,-2.3c-1.2,0,-1.4,1,-1.4,2.3c0,1.2,.2,2.1,1.4,2.1Z" class="g1"/>
<path d="M583,567.7c-2.3,-.4,-1.6,2.7,-1.7,4.9h-.9l-.1,-5.7h.9c.1,.4,0,.9,.1,1.2c.2,-.8,.7,-1.5,1.7,-1.2v.8Z" class="g1"/>
<path d="M587.3,571.5c-.4,.6,-.9,1.2,-2,1.2c-1,0,-1.7,-.6,-1.7,-1.7c0,-1.9,1.9,-1.9,3.7,-1.9c.1,-1,-.3,-1.6,-1.2,-1.6c-.7,.1,-1.2,.2,-1.2,.9h-1c.1,-1.1,1,-1.6,2.2,-1.6c1.4,0,2.2,.6,2.2,1.9v2.5c-.1,.5,.2,.9,.8,.8v.5c-.9,.3,-1.8,0,-1.8,-1Zm-2.7,-.5c0,.6,.3,1,.9,1c1.3,-.1,1.9,-.9,1.8,-2.2c-1.3,0,-2.7,-.2,-2.7,1.2Z" class="g1"/>
<path d="M595.3,567.6c-2,0,-1.1,3.1,-1.3,5h-.9V569c0,-.9,-.1,-1.5,-1,-1.4c-2,.1,-1.2,3,-1.3,5h-1v-5.7h.9c0,.3,0,.7,.1,1c.3,-1.3,2.9,-1.5,3.1,0c.4,-.6,.8,-1.1,1.8,-1.1c2.5,0,1.4,3.6,1.6,5.8h-.9V569c0,-.9,-.2,-1.5,-1.1,-1.4Z" class="g1"/>
<path d="M601.8,572.6v-7.4h5.6v.8h-4.6v2.4h4.3v.8h-4.3v2.6h4.8v.8h-5.8Z" class="g1"/>
<path d="M611.6,566.8c2.6,-.1,1.5,3.5,1.7,5.8h-.9V569c0,-.9,-.2,-1.5,-1.2,-1.4c-2.1,0,-1.3,3,-1.4,5h-1v-5.7h.9c0,.3,0,.7,0,1c.4,-.7,.9,-1.1,1.9,-1.1Z" class="g1"/>
<path d="M616.6,566.8c.9,0,1.4,.4,1.7,1v-3h1v7.8h-.9c-.1,-.3,0,-.7,-.1,-.9c-.3,.6,-.8,1,-1.7,1c-1.6,0,-2.1,-1.2,-2.1,-2.9c0,-2,.7,-3,2.1,-3Zm.2,.7c-1.2,0,-1.3,1,-1.3,2.3c0,1.1,.1,2.2,1.3,2.2c1.2,0,1.5,-1,1.5,-2.3c0,-1.3,-.3,-2.2,-1.5,-2.2Z" class="g1"/>
<path d="M624,568.3c-.1,-1,-2.6,-1.1,-2.6,0c.4,1.6,3.4,.4,3.5,2.7c.1,2.3,-4.4,2.2,-4.6,.2l.8,-.1c.1,1.1,2.9,1.3,2.9,0c-.3,-1.7,-3.4,-.5,-3.5,-2.7c-.1,-1.7,2.4,-1.9,3.6,-1.2c.4,.2,.6,.5,.7,1Z" class="g1"/>
<text x="444" y="250" dx="0,0,0,0,0,0,0,-.4,0,0,0,0,0" class="s1">Gaurd Trigger</text>
<text x="405" y="262" class="s1">User enters password if wrong</text>
<text x="525" y="388" dx="0,-.2,0,0,0,0,0,0,0,0,0,0,0,0,0,0,0,0,0,0,0,0,0,0,0,0,0,0" class="s1">View Members and manipulate </text>
<text x="588" y="401" class="s1">data</text>
<text x="297" y="463" class="s1">Manager Log out</text>
<text x="485" y="66" dx="0,0,0,.6,0,0,.9,0,.9,0,0,0,1,0,.9,1,0,1,0,.9,1,.9,1,0,1,.9,-.5" class="s2">UML State Diagram project 2</text>
<text x="532" y="89" class="s3">Mohamed   |  December 2, 2019</text>
<text x="339" y="332" dx="0,-.6,-.6,-.6,-.6,-.6,-.1,-.6,-.6,-.6,-.6" class="s4">LoginWindow</text>
<text x="360" y="268" class="s5">Open App</text>
<text x="527" y="323" dx="0,0,-.5,0,-.5,0,0,-.5,-.5,0,-.5,-.5,0,0,-.5,0,-.5,-.5,-.5,-.5,-.5,0,0,0,-.5,-.5,-.5,-.5,-.5,-.5,0,0,-.5,-.5,0,-.5,-.5,0,-.5,-.5,0" class="s6">User enters an Admin Password and user Id</text>
<text x="798" y="332" dx="0,-.6,-.6,-.6,-.6,-.6,-.2,-.6,0,-.6" class="s4">Admin menu</text>
<text x="792" y="455" dx="0,0,0,0,0,0,0,0,0,0,-.2,0,0,0" class="s1">Inventory Page</text>
<text x="565" y="348" dx="0,0,0,0,0,0,.1,0,0,0,0,0,0" class="s1">Admin Log out</text>
<text x="970" y="449" dx="0,-.8,0,0,0,0,0,0,0,-.2,0,0,0,0,0,0,0,0" class="s1">Validate Software </text>
<text x="999" y="462" class="s1">page</text>
<text x="610" y="455" class="s1">Members Page</text>
<text x="928" y="404" dx="0,0,0,0,0,0,0,0,0,0,0,-.1,0,0,0,-.2,0,0,0,0,-.2,0,0,0,0,0,0,0,0,0" class="s1">Add member and make a purchase</text>
<text x="729" y="376" dx="0,0,0,0,0,0,0,0,0,0,0,0,0,-.1,0,0,0,-.2,0,0,-.2,0,0,0,0,0,.2,0,0,0,0,0,0,0,.4,0,0,-.2,0,0,0" class="s1">User chooses one of three options to view</text>
<text x="743" y="406" dx="0,-.2,0,0,0,-.4,0,0,0,0,0,0,0,0,0,.5,0,0,0,-.2,0,0,0,0,0,0,0,0,0,0,-.2,0,0,0" class="s1">View Inventory and manipulate Data</text>
<text x="198" y="455" dx="0,0,0,0,0,0,0,0,0,-1.2,0,0,0" class="s1">Manager Table</text>
<text x="139" y="384" dx="0,0,0,0,0,0,0,0,0,0,0,0,0,0,0,0,0,0,0,0,0,0,0,0,0,0,0,0,0,0,0,0,0,0,0,0,0,0,0,0,.1,0" class="s1">User Enters a manager Password and user Id</text>
<text x="557" y="572" class="s1">Program Ends</text>

</g>
</svg>
